<svg width="950" height="1040" viewBox="0 0 950 1040" fill="none" xmlns="http://www.w3.org/2000/svg">
<g id="Frame 1">
<rect id="Rectangle 39" y="90" width="10" height="950" rx="5" fill="#D9D9D9"/>
<rect id="Rectangle 40" x="370" y="90" width="580" height="10" rx="5" fill="#D9D9D9"/>
<rect id="Rectangle 45" y="90" width="270" height="10" rx="5" fill="#D9D9D9"/>
<rect id="Rectangle 41" x="210" y="90" width="10" height="220" rx="5" fill="#D9D9D9"/>
<rect id="Rectangle 44" x="420" y="90" width="10" height="220" rx="5" fill="#D9D9D9"/>
<rect id="Rectangle 57" x="420" y="820" width="10" height="220" rx="5" fill="#D9D9D9"/>
<rect id="Rectangle 53" x="730" y="300" width="10" height="330" rx="5" fill="#D9D9D9"/>
<rect id="Rectangle 58" x="210" y="940" width="10" height="100" rx="5" fill="#D9D9D9"/>
<rect id="Rectangle 54" x="730" y="730" width="10" height="100" rx="5" fill="#D9D9D9"/>
<rect id="Rectangle 62" x="604" y="455" width="10" height="220" rx="5" fill="#D9D9D9"/>
<rect id="Rectangle 59" x="210" y="510" width="10" height="330" rx="5" fill="#D9D9D9"/>
<rect id="Rectangle 49" x="940" y="90" width="10" height="950" rx="5" fill="#D9D9D9"/>
<rect id="Rectangle 42" y="300" width="100" height="10" rx="5" fill="#D9D9D9"/>
<rect id="Rectangle 52" x="420" y="300" width="100" height="10" rx="5" fill="#D9D9D9"/>
<rect id="Rectangle 56" x="420" y="820" width="100" height="10" rx="5" fill="#D9D9D9"/>
<rect id="Rectangle 60" y="510" width="220" height="10" rx="5" fill="#D9D9D9"/>
<rect id="Rectangle 48" x="620" y="300" width="330" height="10" rx="5" fill="#D9D9D9"/>
<rect id="Rectangle 55" x="620" y="820" width="330" height="10" rx="5" fill="#D9D9D9"/>
<rect id="Rectangle 43" x="200" y="300" width="20" height="10" rx="5" fill="#D9D9D9"/>
<g id="Group 22">
<rect id="Rectangle 44_2" x="60" y="175" width="100" height="50" rx="10" fill="#FFF050"/>
<text id="Ba&#195;&#177;o" fill="black" xml:space="preserve" style="white-space: pre" font-family="Inter" font-size="25" letter-spacing="0em"><tspan x="80" y="209.091">Ba&#xf1;o</tspan></text>
</g>
<g id="Group 23">
<rect id="Rectangle 44_3" x="285" y="25" width="112" height="50" rx="10" fill="#9FFFA3"/>
<text id="Salida" fill="black" xml:space="preserve" style="white-space: pre" font-family="Inter" font-size="25" letter-spacing="0em"><tspan x="305" y="59.0909">Salida</tspan></text>
</g>
<g id="Group 24">
<rect id="Rectangle 44_4" x="630" y="175" width="110" height="50" rx="10" fill="#FF6E71"/>
<text id="203" fill="black" xml:space="preserve" style="white-space: pre" font-family="Inter" font-size="25" letter-spacing="0em"><tspan x="661.66" y="209.091">203</tspan></text>
</g>
<g id="Group 25">
<rect id="Rectangle 44_5" x="785" y="540" width="110" height="50" rx="10" fill="#FF6E71"/>
<text id="204" fill="black" xml:space="preserve" style="white-space: pre" font-family="Inter" font-size="25" letter-spacing="0em"><tspan x="816.599" y="574.091">204</tspan></text>
</g>
<g id="Group 27">
<rect id="Rectangle 44_6" x="630" y="905" width="110" height="50" rx="10" fill="#B3F4FF"/>
<text id="102" fill="black" xml:space="preserve" style="white-space: pre" font-family="Inter" font-size="25" letter-spacing="0em"><tspan x="663.809" y="939.091">102</tspan></text>
</g>
<rect id="Rectangle 46" x="260" width="10" height="100" rx="5" fill="#D9D9D9"/>
<rect id="Rectangle 47" x="260" y="10" width="10" height="100" rx="5" transform="rotate(-90 260 10)" fill="#D9D9D9"/>
<rect id="Rectangle 51" y="1030" width="950" height="10" rx="5" fill="#D9D9D9"/>
<rect id="Rectangle 61" x="335" y="455" width="279" height="10" rx="5" fill="#D9D9D9"/>
<rect id="Rectangle 63" x="335" y="665" width="279" height="10" rx="5" fill="#D9D9D9"/>
<g id="Group 26">
<rect id="Rectangle 64" x="455" y="565" width="10" height="20" rx="5" fill="black"/>
<rect id="Rectangle 68" x="475" y="545" width="10" height="20" rx="5" fill="black"/>
<rect id="Rectangle 66" x="465" y="555" width="10" height="20" rx="5" fill="black"/>
<rect id="Rectangle 65" x="455" y="575" width="10" height="20" rx="5" transform="rotate(-90 455 575)" fill="black"/>
<rect id="Rectangle 67" x="465" y="565" width="10" height="20" rx="5" transform="rotate(-90 465 565)" fill="black"/>
<rect id="Rectangle 69" x="475" y="555" width="10" height="20" rx="5" transform="rotate(-90 475 555)" fill="black"/>
</g>
<g id="Group 28">
<rect id="Rectangle 44_7" x="55" y="750" width="110" height="50" rx="10" fill="#B3F4FF"/>
<text id="101" fill="black" xml:space="preserve" style="white-space: pre" font-family="Inter" font-size="25" letter-spacing="0em"><tspan x="90.5664" y="784.091">101</tspan></text>
</g>
</g>
</svg>
