<svg
  width="3419"
  height="2640"
  viewBox="0 0 3419 2640"
  fill="none"
  xmlns="http://www.w3.org/2000/svg"
>
  <rect id="155" x="1730" y="2157" width="55" height="54" fill="white" />
  <rect id="157" x="1968" y="1842" width="101" height="212" fill="white" />
  <rect id="158" x="1942" y="2057" width="106" height="88" fill="white" />
  <rect id="1119" x="2135" y="1737" width="59" height="69" fill="white" />
  <rect id="159" x="1942" y="2148" width="106" height="88" fill="white" />
  <rect id="160" x="2100" y="2167" width="158" height="49" fill="white" />
  <rect id="161" x="2261" y="2139" width="56" height="77" fill="white" />
  <rect id="166" x="2261" y="1842" width="56" height="30" fill="white" />
  <rect id="165" x="2261" y="1875" width="56" height="60" fill="white" />
  <rect id="164" x="2261" y="1938" width="56" height="60" fill="white" />
  <rect id="163" x="2261" y="2001" width="56" height="60" fill="white" />
  <rect id="162" x="2261" y="2064" width="56" height="72" fill="white" />
  <rect id="173" x="2800" y="2090" width="26" height="32" fill="white" />
  <rect id="172" x="2800" y="2063" width="69" height="24" fill="white" />
  <rect id="171" x="2800" y="1950" width="69" height="110" fill="white" />
  <rect id="176" x="2800" y="2149" width="69" height="55" fill="white" />
  <rect id="175" x="2704" y="2149" width="70" height="39" fill="white" />
  <rect id="177" x="2704" y="2191" width="70" height="39" fill="white" />
  <rect id="179" x="2704" y="2233" width="70" height="39" fill="white" />
  <rect id="181" x="2704" y="2275" width="70" height="39" fill="white" />
  <rect id="1118" x="2704" y="2317" width="70" height="62" fill="white" />
  <rect id="178" x="2800" y="2207" width="69" height="55" fill="white" />
  <rect id="180" x="2800" y="2265" width="69" height="55" fill="white" />
  <rect id="182" x="2800" y="2323" width="69" height="56" fill="white" />
  <rect id="169" x="2800" y="1900" width="69" height="47" fill="white" />
  <rect id="168" x="2800" y="1843" width="69" height="54" fill="white" />
  <rect id="167" x="2704" y="1843" width="70" height="71" fill="white" />
  <rect id="170" x="2704" y="1917" width="70" height="147" fill="white" />
  <path
    id="Subtract"
    d="M1877 2211H1788V2157H1816V2134H1877V2211Z"
    fill="white"
  />
  <path
    id="Subtract_2"
    d="M2869 2146H2800V2125H2829V2090H2869V2146Z"
    fill="white"
  />
  <path
    id="778"
    d="M2750 2103C2750 2102.45 2750.45 2102 2751 2102H2755C2755.55 2102 2756 2102.45 2756 2103C2756 2103.55 2755.55 2104 2755 2104H2752V2107C2752 2107.55 2751.55 2108 2751 2108H2748V2111C2748 2111.55 2747.55 2112 2747 2112H2744V2115C2744 2115.55 2743.55 2116 2743 2116H2739C2738.45 2116 2738 2115.55 2738 2115C2738 2114.45 2738.45 2114 2739 2114H2742V2111C2742 2110.45 2742.45 2110 2743 2110H2746V2107C2746 2106.45 2746.45 2106 2747 2106H2750V2103Z"
    fill="black"
  />
  <path
    id="Union_3"
    d="M2641.8 2108.67C2642.86 2108.67 2643.85 2109.17 2644.48 2110.02L2646.24 2112.39C2646.5 2112.75 2646.43 2113.25 2646.08 2113.51C2645.72 2113.78 2645.22 2113.7 2644.96 2113.35L2643.8 2111.79V2117.87H2650.6C2651.04 2117.87 2651.4 2118.23 2651.4 2118.67C2651.4 2119.11 2651.04 2119.47 2650.6 2119.47H2637.8C2637.36 2119.47 2637 2119.11 2637 2118.67C2637 2118.23 2637.36 2117.87 2637.8 2117.87H2639.8V2111.79L2638.64 2113.35C2638.38 2113.7 2637.88 2113.78 2637.52 2113.51C2637.17 2113.25 2637.09 2112.75 2637.36 2112.39L2639.12 2110.02C2639.75 2109.17 2640.74 2108.67 2641.8 2108.67ZM2641.8 2114.27C2641.58 2114.27 2641.4 2114.45 2641.4 2114.67V2117.87H2642.2V2114.67C2642.2 2114.45 2642.02 2114.27 2641.8 2114.27ZM2648.03 2105.3C2648.34 2104.99 2648.85 2104.99 2649.17 2105.3L2651.17 2107.3C2651.48 2107.62 2651.48 2108.13 2651.17 2108.44V2108.43C2650.85 2108.75 2650.34 2108.75 2650.03 2108.43L2649.4 2107.8V2111.47C2649.4 2111.91 2649.04 2112.27 2648.6 2112.27C2648.16 2112.27 2647.8 2111.91 2647.8 2111.47V2107.8L2647.17 2108.44C2646.85 2108.75 2646.34 2108.75 2646.03 2108.44C2645.72 2108.13 2645.72 2107.62 2646.03 2107.3L2648.03 2105.3ZM2654.14 2105C2654.36 2105 2654.94 2105.21 2654.94 2105.67V2109.39L2655.74 2108.67C2655.9 2108.51 2656.58 2108.51 2656.74 2108.67C2657.24 2109.17 2656.89 2109.8 2656.74 2109.95L2654.57 2111.95C2654.41 2112.11 2653.75 2112.11 2653.59 2111.95L2651.74 2110.17C2651.24 2109.67 2651.24 2109.17 2651.74 2108.67C2651.9 2108.51 2652.58 2108.51 2652.74 2108.67L2653.33 2109.39V2105.67C2653.33 2105.15 2653.92 2105 2654.14 2105ZM2641.8 2105.07C2642.57 2105.07 2643.2 2105.7 2643.2 2106.47C2643.2 2107.24 2642.57 2107.87 2641.8 2107.87C2641.03 2107.87 2640.4 2107.24 2640.4 2106.47C2640.4 2105.7 2641.03 2105.07 2641.8 2105.07Z"
    fill="black"
  />
  <path
    id="777_2"
    d="M2154 1866.57C2154 1866.02 2154.45 1865.57 2155 1865.57H2159C2159.55 1865.57 2160 1866.02 2160 1866.57C2160 1867.12 2159.55 1867.57 2159 1867.57H2156V1870.57C2156 1871.12 2155.55 1871.57 2155 1871.57H2152V1874.57C2152 1875.12 2151.55 1875.57 2151 1875.57H2148V1878.57C2148 1879.12 2147.55 1879.57 2147 1879.57H2143C2142.45 1879.57 2142 1879.12 2142 1878.57C2142 1878.02 2142.45 1877.57 2143 1877.57H2146V1874.57C2146 1874.02 2146.45 1873.57 2147 1873.57H2150V1870.57C2150 1870.02 2150.45 1869.57 2151 1869.57H2154V1866.57Z"
    fill="black"
  />
  <path
    id="Union_4"
    d="M2170.8 1868.67C2171.86 1868.67 2172.85 1869.17 2173.48 1870.02L2175.24 1872.39C2175.5 1872.75 2175.43 1873.25 2175.08 1873.51C2174.72 1873.78 2174.22 1873.7 2173.96 1873.35L2172.8 1871.79V1877.87H2179.6C2180.04 1877.87 2180.4 1878.23 2180.4 1878.67C2180.4 1879.11 2180.04 1879.47 2179.6 1879.47H2166.8C2166.36 1879.47 2166 1879.11 2166 1878.67C2166 1878.23 2166.36 1877.87 2166.8 1877.87H2168.8V1871.79L2167.64 1873.35C2167.38 1873.7 2166.88 1873.78 2166.52 1873.51C2166.17 1873.25 2166.09 1872.75 2166.36 1872.39L2168.12 1870.02C2168.75 1869.17 2169.74 1868.67 2170.8 1868.67ZM2170.8 1874.27C2170.58 1874.27 2170.4 1874.45 2170.4 1874.67V1877.87H2171.2V1874.67C2171.2 1874.45 2171.02 1874.27 2170.8 1874.27ZM2177.03 1865.3C2177.34 1864.99 2177.85 1864.99 2178.17 1865.3L2180.17 1867.3C2180.48 1867.62 2180.48 1868.13 2180.17 1868.44V1868.43C2179.85 1868.75 2179.34 1868.75 2179.03 1868.43L2178.4 1867.8V1871.47C2178.4 1871.91 2178.04 1872.27 2177.6 1872.27C2177.16 1872.27 2176.8 1871.91 2176.8 1871.47V1867.8L2176.17 1868.44C2175.85 1868.75 2175.34 1868.75 2175.03 1868.44C2174.72 1868.13 2174.72 1867.62 2175.03 1867.3L2177.03 1865.3ZM2183.14 1865C2183.36 1865 2183.94 1865.21 2183.94 1865.67V1869.39L2184.74 1868.67C2184.9 1868.51 2185.58 1868.51 2185.74 1868.67C2186.24 1869.17 2185.89 1869.8 2185.74 1869.95L2183.57 1871.95C2183.41 1872.11 2182.75 1872.11 2182.59 1871.95L2180.74 1870.17C2180.24 1869.67 2180.24 1869.17 2180.74 1868.67C2180.9 1868.51 2181.58 1868.51 2181.74 1868.67L2182.33 1869.39V1865.67C2182.33 1865.15 2182.92 1865 2183.14 1865ZM2170.8 1865.07C2171.57 1865.07 2172.2 1865.7 2172.2 1866.47C2172.2 1867.24 2171.57 1867.87 2170.8 1867.87C2170.03 1867.87 2169.4 1867.24 2169.4 1866.47C2169.4 1865.7 2170.03 1865.07 2170.8 1865.07Z"
    fill="black"
  />
  <path
    id="Vector_15"
    d="M1436.6 1939.05C1436.6 1938.47 1437.07 1938 1437.65 1938H1441.85C1442.43 1938 1442.9 1938.47 1442.9 1939.05C1442.9 1939.63 1442.43 1940.1 1441.85 1940.1H1438.7V1943.25C1438.7 1943.83 1438.23 1944.3 1437.65 1944.3H1434.5V1947.45C1434.5 1948.03 1434.03 1948.5 1433.45 1948.5H1430.3V1951.65C1430.3 1952.23 1429.83 1952.7 1429.25 1952.7H1425.05C1424.47 1952.7 1424 1952.23 1424 1951.65C1424 1951.07 1424.47 1950.6 1425.05 1950.6H1428.2V1947.45C1428.2 1946.87 1428.67 1946.4 1429.25 1946.4H1432.4V1943.25C1432.4 1942.67 1432.87 1942.2 1433.45 1942.2H1436.6V1939.05Z"
    fill="black"
  />
  <path
    id="Vector_16"
    d="M1476.67 2151.43C1476.67 2151.19 1476.84 2151 1477.06 2151H1478.61C1478.83 2151 1479 2151.19 1479 2151.43C1479 2151.67 1478.83 2151.86 1478.61 2151.86H1477.44V2153.14C1477.44 2153.38 1477.27 2153.57 1477.06 2153.57H1475.89V2154.86C1475.89 2155.09 1475.72 2155.29 1475.5 2155.29H1474.33V2156.57C1474.33 2156.81 1474.16 2157 1473.94 2157H1472.39C1472.17 2157 1472 2156.81 1472 2156.57C1472 2156.33 1472.17 2156.14 1472.39 2156.14H1473.56V2154.86C1473.56 2154.62 1473.73 2154.43 1473.94 2154.43H1475.11V2153.14C1475.11 2152.91 1475.28 2152.71 1475.5 2152.71H1476.67V2151.43Z"
    fill="black"
  />
  <path
    id="Vector_17"
    d="M1698.94 2114.69C1698.94 2114.11 1699.41 2113.64 1699.99 2113.64H1704.19C1704.77 2113.64 1705.24 2114.11 1705.24 2114.69C1705.24 2115.27 1704.77 2115.74 1704.19 2115.74H1701.04V2118.89C1701.04 2119.47 1700.57 2119.94 1699.99 2119.94H1696.84V2123.09C1696.84 2123.67 1696.37 2124.14 1695.79 2124.14H1692.64V2127.29C1692.64 2127.87 1692.17 2128.34 1691.59 2128.34H1687.39C1686.81 2128.34 1686.34 2127.87 1686.34 2127.29C1686.34 2126.71 1686.81 2126.24 1687.39 2126.24H1690.54V2123.09C1690.54 2122.51 1691.01 2122.04 1691.59 2122.04H1694.74V2118.89C1694.74 2118.31 1695.21 2117.84 1695.79 2117.84H1698.94V2114.69Z"
    fill="black"
  />
  <path
    id="Vector_18"
    d="M2170.6 2122.05C2170.6 2121.47 2171.07 2121 2171.65 2121H2175.85C2176.43 2121 2176.9 2121.47 2176.9 2122.05C2176.9 2122.63 2176.43 2123.1 2175.85 2123.1H2172.7V2126.25C2172.7 2126.83 2172.23 2127.3 2171.65 2127.3H2168.5V2130.45C2168.5 2131.03 2168.03 2131.5 2167.45 2131.5H2164.3V2134.65C2164.3 2135.23 2163.83 2135.7 2163.25 2135.7H2159.05C2158.47 2135.7 2158 2135.23 2158 2134.65C2158 2134.07 2158.47 2133.6 2159.05 2133.6H2162.2V2130.45C2162.2 2129.87 2162.67 2129.4 2163.25 2129.4H2166.4V2126.25C2166.4 2125.67 2166.87 2125.2 2167.45 2125.2H2170.6V2122.05Z"
    fill="black"
  />
  <path
    id="Union_5"
    d="M2870.65 1840.01C2871.41 1840.08 2872 1840.72 2872 1841.5V2380.5C2872 2381.28 2871.41 2381.92 2870.65 2381.99C2870.6 2382 2870.55 2382 2870.5 2382H2702.5C2701.67 2382 2701 2381.33 2701 2380.5C2701 2380.32 2701.03 2380.16 2701.09 2380C2701.03 2379.84 2701 2379.68 2701 2379.5V2149H2667.5C2667.45 2149 2667.4 2149 2667.35 2148.99C2666.59 2148.92 2666 2148.28 2666 2147.5V2133H2626.5C2625.72 2133 2625.08 2132.41 2625.01 2131.65C2625 2131.6 2625 2131.55 2625 2131.5V2094.5C2625 2094.32 2625.03 2094.16 2625.09 2094C2625.03 2093.84 2625 2093.68 2625 2093.5C2625 2092.67 2625.67 2092 2626.5 2092H2666V2065.5C2666 2064.67 2666.67 2064 2667.5 2064H2701V1841.5C2701 1840.67 2701.67 1840 2702.5 1840H2870.5C2870.55 1840 2870.6 1840 2870.65 1840.01ZM2704 1914H2774V1910.5C2774 1909.67 2774.67 1909 2775.5 1909C2776.33 1909 2777 1909.67 2777 1910.5V1935.5C2777 1936.33 2776.33 1937 2775.5 1937C2774.67 1937 2774 1936.33 2774 1935.5V1917H2704V2064H2761.5C2762.33 2064 2763 2064.67 2763 2065.5C2763 2066.33 2762.33 2067 2761.5 2067H2669V2093.5C2669 2094.33 2668.33 2095 2667.5 2095H2628V2130H2667.5C2667.55 2130 2667.6 2130 2667.65 2130.01C2668.36 2130.08 2668.92 2130.64 2668.99 2131.35C2669 2131.4 2669 2131.45 2669 2131.5V2146H2775.5C2776.33 2146 2777 2146.67 2777 2147.5C2777 2148.33 2776.33 2149 2775.5 2149H2704V2188H2774V2159.5C2774 2158.67 2774.67 2158 2775.5 2158C2776.33 2158 2777 2158.67 2777 2159.5V2218.5C2777 2219.33 2776.33 2220 2775.5 2220C2774.67 2220 2774 2219.33 2774 2218.5V2191H2704V2230H2774.5C2775.33 2230 2776 2230.67 2776 2231.5C2776 2232.33 2775.33 2233 2774.5 2233H2704V2272H2774V2243.5C2774 2242.67 2774.67 2242 2775.5 2242C2776.33 2242 2777 2242.67 2777 2243.5V2301.5C2777 2302.33 2776.33 2303 2775.5 2303C2774.67 2303 2774 2302.33 2774 2301.5V2275H2704V2314H2775.5C2776.33 2314 2777 2314.67 2777 2315.5C2777 2316.33 2776.33 2317 2775.5 2317H2704V2379H2797.09C2797.03 2378.84 2797 2378.68 2797 2378.5V2332.5C2797 2331.67 2797.67 2331 2798.5 2331C2799.33 2331 2800 2331.67 2800 2332.5V2378.5C2800 2378.68 2799.97 2378.84 2799.91 2379H2869V2323H2798.5C2797.67 2323 2797 2322.33 2797 2321.5C2797 2320.67 2797.67 2320 2798.5 2320H2869V2265H2800V2310.5C2800 2311.33 2799.33 2312 2798.5 2312C2797.67 2312 2797 2311.33 2797 2310.5V2225.5C2797 2224.67 2797.67 2224 2798.5 2224C2799.33 2224 2800 2224.67 2800 2225.5V2262H2869V2207H2800V2213.5C2800 2214.33 2799.33 2215 2798.5 2215C2797.67 2215 2797 2214.33 2797 2213.5V2196.5C2797 2195.67 2797.67 2195 2798.5 2195C2799.33 2195 2800 2195.67 2800 2196.5V2204H2869V2149H2800V2185.5C2800 2186.33 2799.33 2187 2798.5 2187C2797.67 2187 2797 2186.33 2797 2185.5V2147.5C2797 2146.67 2797.67 2146 2798.5 2146H2869V2090H2829V2123.5C2829 2124.33 2828.33 2125 2827.5 2125H2800V2134.5C2800 2135.33 2799.33 2136 2798.5 2136C2797.67 2136 2797 2135.33 2797 2134.5V2116.5C2797 2115.67 2797.67 2115 2798.5 2115C2799.33 2115 2800 2115.67 2800 2116.5V2122H2826V2090H2800V2106.5C2800 2107.33 2799.33 2108 2798.5 2108C2797.67 2108 2797 2107.33 2797 2106.5V2077.5C2797 2076.67 2797.67 2076 2798.5 2076C2799.33 2076 2800 2076.67 2800 2077.5V2087H2869V2063H2800V2065.5C2800 2066.33 2799.33 2067 2798.5 2067C2797.67 2067 2797 2066.33 2797 2065.5V2058.5C2797 2057.67 2797.67 2057 2798.5 2057C2799.33 2057 2800 2057.67 2800 2058.5V2060H2869V1950H2800V2006.5C2800 2007.33 2799.33 2008 2798.5 2008C2797.67 2008 2797 2007.33 2797 2006.5V1926.5C2797 1925.67 2797.67 1925 2798.5 1925C2799.33 1925 2800 1925.67 2800 1926.5V1947H2869V1900H2800V1916.5C2800 1917.33 2799.33 1918 2798.5 1918C2797.67 1918 2797 1917.33 2797 1916.5V1888.5C2797 1887.67 2797.67 1887 2798.5 1887C2799.33 1887 2800 1887.67 2800 1888.5V1897H2869V1843H2800V1876.5C2800 1877.33 2799.33 1878 2798.5 1878C2797.67 1878 2797 1877.33 2797 1876.5V1843H2777V1847.5C2777 1848.33 2776.33 1849 2775.5 1849C2774.67 1849 2774 1848.33 2774 1847.5V1843H2704V1914ZM2775.5 2326C2776.33 2326 2777 2326.67 2777 2327.5V2368.5C2777 2369.33 2776.33 2370 2775.5 2370C2774.67 2370 2774 2369.33 2774 2368.5V2327.5C2774 2326.67 2774.67 2326 2775.5 2326ZM2195.65 1734.01C2196.36 1734.08 2196.92 1734.64 2196.99 1735.35C2197 1735.4 2197 1735.45 2197 1735.5V1806H2318.5C2319.33 1806 2320 1806.67 2320 1807.5V2217.5C2320 2218.33 2319.33 2219 2318.5 2219H2100V2237.5C2100 2238.33 2099.33 2239 2098.5 2239H1940.5C1940.45 2239 1940.4 2239 1940.35 2238.99C1939.64 2238.92 1939.08 2238.36 1939.01 2237.65C1939 2237.6 1939 2237.55 1939 2237.5V2055.5C1939 2055.45 1939 2055.4 1939.01 2055.35C1939.08 2054.59 1939.72 2054 1940.5 2054H1965V1807.5C1965 1807.45 1965 1807.4 1965.01 1807.35C1965.08 1806.59 1965.72 1806 1966.5 1806H2132V1735.5C2132 1735.45 2132 1735.4 2132.01 1735.35C2132.08 1734.59 2132.72 1734 2133.5 1734H2195.5C2195.55 1734 2195.6 1734 2195.65 1734.01ZM2135 1806H2145.5C2146.33 1806 2147 1806.67 2147 1807.5C2147 1808.33 2146.33 1809 2145.5 1809H1968V1839H2006.5C2007.33 1839 2008 1839.67 2008 1840.5C2008 1841.33 2007.33 1842 2006.5 1842H1968V2054H2052.5C2053.33 2054 2054 2054.67 2054 2055.5C2054 2056.33 2053.33 2057 2052.5 2057H1942V2145H2050.5C2051.33 2145 2052 2145.67 2052 2146.5C2052 2147.33 2051.33 2148 2050.5 2148H1942V2236H2097V2165.5C2097 2164.67 2097.67 2164 2098.5 2164C2099.33 2164 2100 2164.67 2100 2165.5V2216H2258V2150.5C2258 2149.67 2258.67 2149 2259.5 2149C2260.33 2149 2261 2149.67 2261 2150.5V2216H2317V2139H2259.5C2258.67 2139 2258 2138.33 2258 2137.5C2258 2136.67 2258.67 2136 2259.5 2136H2317V2064H2261V2065.5C2261 2066.33 2260.33 2067 2259.5 2067C2258.67 2067 2258 2066.33 2258 2065.5V2059.5C2258 2058.67 2258.67 2058 2259.5 2058C2260.33 2058 2261 2058.67 2261 2059.5V2061H2317V2001H2261V2049.5C2261 2050.33 2260.33 2051 2259.5 2051C2258.67 2051 2258 2050.33 2258 2049.5V1954.5C2258 1953.67 2258.67 1953 2259.5 1953C2260.33 1953 2261 1953.67 2261 1954.5V1998H2317V1938H2261V1941.5C2261 1942.33 2260.33 1943 2259.5 1943C2258.67 1943 2258 1942.33 2258 1941.5V1882.5C2258 1881.67 2258.67 1881 2259.5 1881C2260.33 1881 2261 1881.67 2261 1882.5V1935H2317V1875H2259.5C2258.67 1875 2258 1874.33 2258 1873.5C2258 1872.67 2258.67 1872 2259.5 1872H2317V1842H2261V1864.5C2261 1865.33 2260.33 1866 2259.5 1866C2258.67 1866 2258 1865.33 2258 1864.5V1840.5C2258 1839.67 2258.67 1839 2259.5 1839H2317V1809H2180.5C2179.67 1809 2179 1808.33 2179 1807.5C2179 1806.67 2179.67 1806 2180.5 1806H2194V1737H2135V1806ZM2049.5 2155C2050.33 2155 2051 2155.67 2051 2156.5V2226.5C2051 2227.33 2050.33 2228 2049.5 2228C2048.67 2228 2048 2227.33 2048 2226.5V2156.5C2048 2155.67 2048.67 2155 2049.5 2155ZM1719.87 2103C1720.69 2103 1721.37 2103.67 1721.37 2104.5C1721.37 2104.87 1721.23 2105.22 1721 2105.48V2131L1877.81 2131C1877.93 2131 1878.05 2131.01 1878.16 2131.04C1878.27 2131.01 1878.38 2131 1878.5 2131C1879.33 2131 1880 2131.67 1880 2132.5V2212.5C1880 2213.33 1879.33 2214 1878.5 2214C1878.32 2214 1878.16 2213.97 1878 2213.91C1877.84 2213.97 1877.68 2214 1877.5 2214H1570.5C1570.45 2214 1570.4 2214 1570.35 2213.99C1569.59 2213.92 1569 2213.28 1569 2212.5V2132.5C1569 2131.67 1569.67 2131 1570.5 2131H1616V2104.5C1616 2103.67 1616.67 2103 1617.5 2103H1652.5C1652.55 2103 1652.6 2103 1652.65 2103.01C1653.36 2103.08 1653.92 2103.64 1653.99 2104.35C1654 2104.4 1654 2104.45 1654 2104.5V2131H1671L1671 2104.5C1671 2103.67 1671.67 2103 1672.5 2103C1672.51 2103 1672.51 2103 1672.52 2103L1719.87 2103ZM1674 2106L1674 2132.62C1674 2133.45 1673.33 2134.12 1672.5 2134.12C1672.29 2134.12 1672.1 2134.08 1671.92 2134H1637.5C1636.67 2134 1636 2133.33 1636 2132.5C1636 2131.67 1636.67 2131 1637.5 2131H1651V2106H1619V2131H1627.5C1628.33 2131 1629 2131.67 1629 2132.5C1629 2133.33 1628.33 2134 1627.5 2134H1572V2211H1613V2146.5C1613 2145.67 1613.67 2145 1614.5 2145C1615.33 2145 1616 2145.67 1616 2146.5V2154H1690.5C1691.33 2154 1692 2154.67 1692 2155.5C1692 2156.33 1691.33 2157 1690.5 2157H1616V2211H1727V2157H1702.5C1701.67 2157 1701 2156.33 1701 2155.5C1701 2154.67 1701.67 2154 1702.5 2154H1740.5C1741.33 2154 1742 2154.67 1742 2155.5C1742 2156.33 1741.33 2157 1740.5 2157H1730V2211H1785V2157H1753.5C1752.67 2157 1752 2156.33 1752 2155.5C1752 2154.67 1752.67 2154 1753.5 2154H1813V2150.5C1813 2149.67 1813.67 2149 1814.5 2149C1815.33 2149 1816 2149.67 1816 2150.5V2155.5C1816 2156.33 1815.33 2157 1814.5 2157H1788V2211H1877V2134L1816 2134V2137.5C1816 2138.33 1815.33 2139 1814.5 2139C1813.67 2139 1813 2138.33 1813 2137.5V2134L1720.08 2134C1719.9 2134.08 1719.71 2134.12 1719.5 2134.12C1718.67 2134.12 1718 2133.45 1718 2132.62L1718 2106L1674 2106ZM1398.65 1919.01C1399.41 1919.08 1400 1919.72 1400 1920.5V1927H1466.5C1467.33 1927 1468 1927.67 1468 1928.5V1959H1475.5C1475.55 1959 1475.6 1959 1475.65 1959.01C1476.36 1959.08 1476.92 1959.64 1476.99 1960.35C1477 1960.4 1477 1960.45 1477 1960.5V2098.5C1477 2099.33 1476.33 2100 1475.5 2100H1469V2132H1483.5C1484.33 2132 1485 2132.67 1485 2133.5V2170.5C1485 2171.33 1484.33 2172 1483.5 2172C1482.67 2172 1482 2171.33 1482 2170.5V2135H1398.5C1398.45 2135 1398.4 2135 1398.35 2134.99C1397.59 2134.92 1397 2134.28 1397 2133.5V2113.5C1397 2112.67 1397.67 2112 1398.5 2112C1399.33 2112 1400 2112.67 1400 2113.5V2132H1466V2100H1400V2101.5C1400 2102.33 1399.33 2103 1398.5 2103C1397.67 2103 1397 2102.33 1397 2101.5V2074.5C1397 2073.67 1397.67 2073 1398.5 2073C1399.33 2073 1400 2073.67 1400 2074.5V2097H1474V2067H1400V2067.5C1400 2068.33 1399.33 2069 1398.5 2069C1397.67 2069 1397 2068.33 1397 2067.5V2048.5C1397 2047.67 1397.67 2047 1398.5 2047C1399.33 2047 1400 2047.67 1400 2048.5V2064H1474V2038H1400V2039.5C1400 2040.33 1399.33 2041 1398.5 2041C1397.67 2041 1397 2040.33 1397 2039.5V2020.5C1397 2019.67 1397.67 2019 1398.5 2019C1399.33 2019 1400 2019.67 1400 2020.5V2035H1474V2009H1400V2010.5C1400 2011.33 1399.33 2012 1398.5 2012C1397.67 2012 1397 2011.33 1397 2010.5V1976.5C1397 1975.67 1397.67 1975 1398.5 1975C1399.33 1975 1400 1975.67 1400 1976.5V2006H1474V1962H1400V1962.5C1400 1963.33 1399.33 1964 1398.5 1964C1397.67 1964 1397 1963.33 1397 1962.5V1960.5C1397 1959.67 1397.67 1959 1398.5 1959H1465V1930H1398.5C1397.72 1930 1397.08 1929.41 1397.01 1928.65C1397 1928.6 1397 1928.55 1397 1928.5V1922H1357V1958.5C1357 1959.33 1356.33 1960 1355.5 1960C1354.67 1960 1354 1959.33 1354 1958.5V1922H1306V1968H1355.5C1355.55 1968 1355.6 1968 1355.65 1968.01C1356.41 1968.08 1357 1968.72 1357 1969.5V1992.5C1357 1993.33 1356.33 1994 1355.5 1994H1306V2024H1354V2004.5C1354 2003.67 1354.67 2003 1355.5 2003C1356.33 2003 1357 2003.67 1357 2004.5V2020H1383.5C1383.68 2020 1383.84 2020.03 1384 2020.09C1384.16 2020.03 1384.32 2020 1384.5 2020C1385.33 2020 1386 2020.67 1386 2021.5V2110.5C1386 2111.33 1385.33 2112 1384.5 2112C1384.32 2112 1384.16 2111.97 1384 2111.91C1383.84 2111.97 1383.68 2112 1383.5 2112H1306V2145H1352V2121.5C1352 2120.67 1352.67 2120 1353.5 2120C1354.33 2120 1355 2120.67 1355 2121.5V2147H1380.5C1381.33 2147 1382 2147.67 1382 2148.5C1382 2149.33 1381.33 2150 1380.5 2150H1355V2178H1397V2150H1394.5C1393.67 2150 1393 2149.33 1393 2148.5C1393 2147.67 1393.67 2147 1394.5 2147H1402.5C1403.33 2147 1404 2147.67 1404 2148.5C1404 2149.33 1403.33 2150 1402.5 2150H1400V2178H1422V2150H1411.5C1410.67 2150 1410 2149.33 1410 2148.5C1410 2147.67 1410.67 2147 1411.5 2147H1449.5C1450.33 2147 1451 2147.67 1451 2148.5C1451 2149.33 1450.33 2150 1449.5 2150H1425V2178H1466V2150H1460.5C1459.67 2150 1459 2149.33 1459 2148.5C1459 2147.67 1459.67 2147 1460.5 2147H1467.5C1468.33 2147 1469 2147.67 1469 2148.5V2179.5C1469 2180.33 1468.33 2181 1467.5 2181H1353.5C1352.67 2181 1352 2180.33 1352 2179.5C1352 2179.32 1352.03 2179.16 1352.09 2179C1352.03 2178.84 1352 2178.68 1352 2178.5V2148H1304.5C1303.67 2148 1303 2147.33 1303 2146.5V1992.5C1303 1991.67 1303.67 1991 1304.5 1991H1354V1971H1304.5C1303.72 1971 1303.08 1970.41 1303.01 1969.65C1303 1969.6 1303 1969.55 1303 1969.5V1920.5C1303 1920.45 1303 1920.4 1303.01 1920.35C1303.08 1919.59 1303.72 1919 1304.5 1919H1398.5C1398.55 1919 1398.6 1919 1398.65 1919.01ZM2248.5 2164C2249.33 2164 2250 2164.67 2250 2165.5C2250 2166.33 2249.33 2167 2248.5 2167H2109.5C2108.67 2167 2108 2166.33 2108 2165.5C2108 2164.67 2108.67 2164 2109.5 2164H2248.5ZM2133.65 1851.01C2134.41 1851.08 2135 1851.72 2135 1852.5V1896H2194V1852.5C2194 1851.67 2194.67 1851 2195.5 1851H2232.5C2232.55 1851 2232.6 1851 2232.65 1851.01C2233.41 1851.08 2234 1851.72 2234 1852.5V2137.5C2234 2138.28 2233.41 2138.92 2232.65 2138.99C2232.6 2139 2232.55 2139 2232.5 2139H2181.5C2180.67 2139 2180 2138.33 2180 2137.5C2180 2136.67 2180.67 2136 2181.5 2136H2231V1854H2197V1897.5C2197 1898.33 2196.33 1899 2195.5 1899H2134.5C2134.32 1899 2134.16 1898.97 2134 1898.91C2133.84 1898.97 2133.68 1899 2133.5 1899C2132.67 1899 2132 1898.33 2132 1897.5V1854H2100V2136H2149.5C2150.33 2136 2151 2136.67 2151 2137.5C2151 2138.33 2150.33 2139 2149.5 2139H2098.5C2097.67 2139 2097 2138.33 2097 2137.5V1852.5C2097 1852.45 2097 1852.4 2097.01 1852.35C2097.08 1851.59 2097.72 1851 2098.5 1851H2133.5C2133.55 1851 2133.6 1851 2133.65 1851.01ZM2049.5 2064C2050.33 2064 2051 2064.67 2051 2065.5V2135.5C2051 2136.33 2050.33 2137 2049.5 2137C2048.67 2137 2048 2136.33 2048 2135.5V2065.5C2048 2064.67 2048.67 2064 2049.5 2064ZM2259.5 2075C2260.33 2075 2261 2075.67 2261 2076.5V2127.5C2261 2128.33 2260.33 2129 2259.5 2129C2258.67 2129 2258 2128.33 2258 2127.5V2076.5C2258 2075.67 2258.67 2075 2259.5 2075ZM2775.5 2122C2776.33 2122 2777 2122.67 2777 2123.5C2777 2124.33 2776.33 2125 2775.5 2125H2714.5C2713.67 2125 2713 2124.33 2713 2123.5C2713 2122.67 2713.67 2122 2714.5 2122H2775.5ZM1357 2025.5C1357 2026.33 1356.33 2027 1355.5 2027H1306V2109H1383V2023H1357V2025.5ZM2775.5 2092C2776.33 2092 2777 2092.67 2777 2093.5C2777 2094.33 2776.33 2095 2775.5 2095H2714.5C2713.67 2095 2713 2094.33 2713 2093.5C2713 2092.67 2713.67 2092 2714.5 2092H2775.5ZM2775.5 2044C2776.33 2044 2777 2044.67 2777 2045.5V2065.5C2777 2066.33 2776.33 2067 2775.5 2067H2771.5C2770.67 2067 2770 2066.33 2770 2065.5C2770 2064.67 2770.67 2064 2771.5 2064H2774V2045.5C2774 2044.67 2774.67 2044 2775.5 2044ZM2070.5 1839C2071.33 1839 2072 1839.67 2072 1840.5C2072 1840.68 2071.97 1840.84 2071.91 1841C2071.97 1841.16 2072 1841.32 2072 1841.5V2055.5C2072 2055.55 2072 2055.6 2071.99 2055.65C2071.92 2056.36 2071.36 2056.92 2070.65 2056.99C2070.6 2057 2070.55 2057 2070.5 2057H2064.5C2063.67 2057 2063 2056.33 2063 2055.5C2063 2054.67 2063.67 2054 2064.5 2054H2069V1842H2030.5C2029.67 1842 2029 1841.33 2029 1840.5C2029 1839.67 2029.67 1839 2030.5 1839H2070.5ZM2798.5 2017C2799.33 2017 2800 2017.67 2800 2018.5V2046.5C2800 2047.33 2799.33 2048 2798.5 2048C2797.67 2048 2797 2047.33 2797 2046.5V2018.5C2797 2017.67 2797.67 2017 2798.5 2017ZM2775.5 1945C2776.33 1945 2777 1945.67 2777 1946.5V2033.5C2777 2034.33 2776.33 2035 2775.5 2035C2774.67 2035 2774 2034.33 2774 2033.5V1946.5C2774 1945.67 2774.67 1945 2775.5 1945ZM2775.5 1857C2776.33 1857 2777 1857.67 2777 1858.5V1901.5C2777 1902.33 2776.33 1903 2775.5 1903C2774.67 1903 2774 1902.33 2774 1901.5V1858.5C2774 1857.67 2774.67 1857 2775.5 1857Z"
    fill="#FF0000"
  />
  <path
    id="Vector_19"
    d="M2154.37 1762.06C2154.37 1760.92 2155.28 1760 2156.4 1760C2157.52 1760 2158.42 1760.92 2158.42 1762.06C2158.42 1763.2 2157.52 1764.12 2156.4 1764.12C2155.28 1764.12 2154.37 1763.2 2154.37 1762.06ZM2156.06 1775.12V1780.62C2156.06 1781.39 2155.46 1782 2154.71 1782C2153.97 1782 2153.36 1781.39 2153.36 1780.62V1773.97C2153.02 1774.37 2152.47 1774.54 2151.95 1774.38C2151.24 1774.15 2150.84 1773.38 2151.06 1772.65L2152.32 1768.56C2152.87 1766.74 2154.53 1765.5 2156.4 1765.5C2158.27 1765.5 2159.93 1766.74 2160.48 1768.56L2161.74 1772.65C2161.96 1773.38 2161.56 1774.15 2160.85 1774.37C2160.33 1774.54 2159.78 1774.36 2159.44 1773.97V1780.62C2159.44 1781.39 2158.83 1782 2158.09 1782C2157.34 1782 2156.74 1781.39 2156.74 1780.62V1775.12H2156.06ZM2164.5 1760C2165.06 1760 2165.51 1760.46 2165.51 1761.03V1780.97C2165.51 1781.54 2165.06 1782 2164.5 1782C2163.94 1782 2163.49 1781.54 2163.49 1780.97V1761.03C2163.49 1760.46 2163.94 1760 2164.5 1760ZM2170.58 1762.06C2170.58 1760.92 2171.48 1760 2172.6 1760C2173.72 1760 2174.63 1760.92 2174.63 1762.06C2174.63 1763.2 2173.72 1764.12 2172.6 1764.12C2171.48 1764.12 2170.58 1763.2 2170.58 1762.06ZM2169.56 1780.62V1776.5H2168.81C2168.35 1776.5 2168.03 1776.04 2168.17 1775.59L2168.55 1774.44C2168.42 1774.44 2168.28 1774.42 2168.15 1774.37C2167.44 1774.15 2167.04 1773.38 2167.26 1772.65L2168.52 1768.56C2169.07 1766.74 2170.73 1765.5 2172.6 1765.5C2174.47 1765.5 2176.13 1766.74 2176.68 1768.56L2177.94 1772.65C2178.16 1773.38 2177.76 1774.15 2177.05 1774.37C2176.92 1774.42 2176.78 1774.44 2176.65 1774.44L2177.03 1775.59C2177.18 1776.04 2176.85 1776.5 2176.39 1776.5H2175.64V1780.62C2175.64 1781.39 2175.03 1782 2174.29 1782C2173.54 1782 2172.94 1781.39 2172.94 1780.62V1776.5H2172.26V1780.62C2172.26 1781.39 2171.66 1782 2170.91 1782C2170.17 1782 2169.56 1781.39 2169.56 1780.62Z"
    fill="black"
  />
  <path
    id="Vector_20"
    d="M2729.37 2339.06C2729.37 2337.92 2730.28 2337 2731.4 2337C2732.52 2337 2733.42 2337.92 2733.42 2339.06C2733.42 2340.2 2732.52 2341.12 2731.4 2341.12C2730.28 2341.12 2729.37 2340.2 2729.37 2339.06ZM2731.06 2352.12V2357.62C2731.06 2358.39 2730.46 2359 2729.71 2359C2728.97 2359 2728.36 2358.39 2728.36 2357.62V2350.97C2728.02 2351.37 2727.47 2351.54 2726.95 2351.38C2726.24 2351.15 2725.84 2350.38 2726.06 2349.65L2727.32 2345.56C2727.87 2343.74 2729.53 2342.5 2731.4 2342.5C2733.27 2342.5 2734.93 2343.74 2735.48 2345.56L2736.74 2349.65C2736.96 2350.38 2736.56 2351.15 2735.85 2351.37C2735.33 2351.54 2734.78 2351.36 2734.44 2350.97V2357.62C2734.44 2358.39 2733.83 2359 2733.09 2359C2732.34 2359 2731.74 2358.39 2731.74 2357.62V2352.12H2731.06ZM2739.5 2337C2740.06 2337 2740.51 2337.46 2740.51 2338.03V2357.97C2740.51 2358.54 2740.06 2359 2739.5 2359C2738.94 2359 2738.49 2358.54 2738.49 2357.97V2338.03C2738.49 2337.46 2738.94 2337 2739.5 2337ZM2745.58 2339.06C2745.58 2337.92 2746.48 2337 2747.6 2337C2748.72 2337 2749.63 2337.92 2749.63 2339.06C2749.63 2340.2 2748.72 2341.12 2747.6 2341.12C2746.48 2341.12 2745.58 2340.2 2745.58 2339.06ZM2744.56 2357.62V2353.5H2743.81C2743.35 2353.5 2743.03 2353.04 2743.17 2352.59L2743.55 2351.44C2743.42 2351.44 2743.28 2351.42 2743.15 2351.37C2742.44 2351.15 2742.04 2350.38 2742.26 2349.65L2743.52 2345.56C2744.07 2343.74 2745.73 2342.5 2747.6 2342.5C2749.47 2342.5 2751.13 2343.74 2751.68 2345.56L2752.94 2349.65C2753.16 2350.38 2752.76 2351.15 2752.05 2351.37C2751.92 2351.42 2751.78 2351.44 2751.65 2351.44L2752.03 2352.59C2752.18 2353.04 2751.85 2353.5 2751.39 2353.5H2750.64V2357.62C2750.64 2358.39 2750.03 2359 2749.29 2359C2748.54 2359 2747.94 2358.39 2747.94 2357.62V2353.5H2747.26V2357.62C2747.26 2358.39 2746.66 2359 2745.91 2359C2745.17 2359 2744.56 2358.39 2744.56 2357.62Z"
    fill="black"
  />
  <path
    id="Vector_21"
    d="M1628.25 2112.31C1628.25 2111.59 1628.85 2111 1629.6 2111C1630.34 2111 1630.95 2111.59 1630.95 2112.31C1630.95 2113.04 1630.34 2113.62 1629.6 2113.62C1628.85 2113.62 1628.25 2113.04 1628.25 2112.31ZM1629.37 2120.62V2124.12C1629.37 2124.61 1628.97 2125 1628.47 2125C1627.98 2125 1627.57 2124.61 1627.57 2124.12V2119.89C1627.35 2120.14 1626.98 2120.25 1626.63 2120.15C1626.16 2120 1625.89 2119.51 1626.04 2119.05L1626.88 2116.45C1627.25 2115.29 1628.35 2114.5 1629.6 2114.5C1630.85 2114.5 1631.95 2115.29 1632.32 2116.45L1633.16 2119.05C1633.31 2119.51 1633.04 2120 1632.57 2120.15C1632.22 2120.25 1631.85 2120.14 1631.62 2119.89V2124.12C1631.62 2124.61 1631.22 2125 1630.72 2125C1630.23 2125 1629.82 2124.61 1629.82 2124.12V2120.62H1629.37ZM1635 2111C1635.37 2111 1635.68 2111.29 1635.68 2111.66V2124.34C1635.68 2124.71 1635.37 2125 1635 2125C1634.63 2125 1634.32 2124.71 1634.32 2124.34V2111.66C1634.32 2111.29 1634.63 2111 1635 2111ZM1639.05 2112.31C1639.05 2111.59 1639.66 2111 1640.4 2111C1641.15 2111 1641.75 2111.59 1641.75 2112.31C1641.75 2113.04 1641.15 2113.62 1640.4 2113.62C1639.66 2113.62 1639.05 2113.04 1639.05 2112.31ZM1638.38 2124.12V2121.5H1637.87C1637.57 2121.5 1637.35 2121.21 1637.45 2120.92L1637.7 2120.19C1637.61 2120.19 1637.52 2120.17 1637.43 2120.15C1636.96 2120 1636.69 2119.51 1636.84 2119.05L1637.68 2116.45C1638.05 2115.29 1639.15 2114.5 1640.4 2114.5C1641.65 2114.5 1642.75 2115.29 1643.12 2116.45L1643.96 2119.05C1644.11 2119.51 1643.84 2120 1643.37 2120.15C1643.28 2120.17 1643.19 2120.19 1643.1 2120.19L1643.35 2120.92C1643.45 2121.21 1643.23 2121.5 1642.93 2121.5H1642.43V2124.12C1642.43 2124.61 1642.02 2125 1641.53 2125C1641.03 2125 1640.63 2124.61 1640.63 2124.12V2121.5H1640.18V2124.12C1640.18 2124.61 1639.77 2125 1639.28 2125C1638.78 2125 1638.38 2124.61 1638.38 2124.12Z"
    fill="black"
  />
  <path
    id="Vector_22"
    d="M1439.87 2159.12C1439.87 2158.5 1440.38 2158 1441 2158C1441.62 2158 1442.12 2158.5 1442.12 2159.12C1442.12 2159.75 1441.62 2160.25 1441 2160.25C1440.38 2160.25 1439.87 2159.75 1439.87 2159.12ZM1440.81 2166.25V2169.25C1440.81 2169.66 1440.48 2170 1440.06 2170C1439.65 2170 1439.31 2169.66 1439.31 2169.25V2165.62C1439.12 2165.84 1438.82 2165.93 1438.53 2165.84C1438.13 2165.72 1437.91 2165.3 1438.03 2164.9L1438.73 2162.67C1439.04 2161.68 1439.96 2161 1441 2161C1442.04 2161 1442.96 2161.68 1443.27 2162.67L1443.96 2164.9C1444.09 2165.3 1443.87 2165.72 1443.47 2165.84C1443.18 2165.93 1442.88 2165.84 1442.69 2165.62V2169.25C1442.69 2169.66 1442.35 2170 1441.94 2170C1441.52 2170 1441.19 2169.66 1441.19 2169.25V2166.25H1440.81ZM1445.5 2158C1445.81 2158 1446.06 2158.25 1446.06 2158.56V2169.44C1446.06 2169.75 1445.81 2170 1445.5 2170C1445.19 2170 1444.94 2169.75 1444.94 2169.44V2158.56C1444.94 2158.25 1445.19 2158 1445.5 2158ZM1448.88 2159.12C1448.88 2158.5 1449.38 2158 1450 2158C1450.62 2158 1451.13 2158.5 1451.13 2159.12C1451.13 2159.75 1450.62 2160.25 1450 2160.25C1449.38 2160.25 1448.88 2159.75 1448.88 2159.12ZM1448.31 2169.25V2167H1447.9C1447.64 2167 1447.46 2166.75 1447.54 2166.51L1447.75 2165.88C1447.68 2165.88 1447.6 2165.86 1447.53 2165.84C1447.13 2165.72 1446.91 2165.3 1447.04 2164.9L1447.73 2162.67C1448.04 2161.68 1448.96 2161 1450 2161C1451.04 2161 1451.96 2161.68 1452.27 2162.67L1452.97 2164.9C1453.09 2165.3 1452.87 2165.72 1452.47 2165.84C1452.4 2165.86 1452.32 2165.88 1452.25 2165.88L1452.46 2166.51C1452.54 2166.75 1452.36 2167 1452.11 2167H1451.69V2169.25C1451.69 2169.66 1451.35 2170 1450.94 2170C1450.52 2170 1450.19 2169.66 1450.19 2169.25V2167H1449.81V2169.25C1449.81 2169.66 1449.48 2170 1449.06 2170C1448.65 2170 1448.31 2169.66 1448.31 2169.25Z"
    fill="black"
  />
</svg>
