<svg
  width="3419"
  height="2640"
  viewBox="0 0 3419 2640"
  fill="none"
  xmlns="http://www.w3.org/2000/svg"
>
  <rect id="187" x="2704" y="2150" width="70" height="151" fill="white" />
  <rect id="1117" x="2704" y="2304" width="70" height="76" fill="white" />
  <rect id="186" x="2800" y="2068" width="69" height="148" fill="white" />
  <rect id="185" x="2800" y="1988" width="69" height="77" fill="white" />
  <rect id="184" x="2704" y="1988" width="70" height="77" fill="white" />
  <rect id="183" x="2704" y="1844" width="165" height="141" fill="white" />
  <rect id="188" x="2800" y="2219" width="69" height="161" fill="white" />
  <path
    id="paredes"
    d="M2870.65 1841.01C2871.41 1841.08 2872 1841.72 2872 1842.5V2381.5C2872 2382.28 2871.41 2382.92 2870.65 2382.99C2870.6 2383 2870.55 2383 2870.5 2383H2702.5C2701.67 2383 2701 2382.33 2701 2381.5V2150H2667.5C2666.67 2150 2666 2149.33 2666 2148.5V2134H2626.5C2625.67 2134 2625 2133.33 2625 2132.5V2094.5C2625 2093.67 2625.67 2093 2626.5 2093H2666V2066.5C2666 2065.67 2666.67 2065 2667.5 2065H2678.5C2679.33 2065 2680 2065.67 2680 2066.5C2680 2067.33 2679.33 2068 2678.5 2068H2669V2094.5C2669 2095.33 2668.33 2096 2667.5 2096H2628V2131H2667.5C2667.55 2131 2667.6 2131 2667.65 2131.01C2668.36 2131.08 2668.92 2131.64 2668.99 2132.35C2669 2132.4 2669 2132.45 2669 2132.5V2147H2775.5C2776.33 2147 2777 2147.67 2777 2148.5C2777 2149.33 2776.33 2150 2775.5 2150H2704V2301H2774V2297.5C2774 2296.67 2774.67 2296 2775.5 2296C2776.33 2296 2777 2296.67 2777 2297.5V2302.5C2777 2303.33 2776.33 2304 2775.5 2304H2704V2380H2797.09C2797.03 2379.84 2797 2379.68 2797 2379.5V2374.5C2797 2373.67 2797.67 2373 2798.5 2373C2799.33 2373 2800 2373.67 2800 2374.5V2379.5C2800 2379.68 2799.97 2379.84 2799.91 2380H2869V2219H2800V2220.5C2800 2221.33 2799.33 2222 2798.5 2222C2797.67 2222 2797 2221.33 2797 2220.5V2214.5C2797 2213.67 2797.67 2213 2798.5 2213C2799.33 2213 2800 2213.67 2800 2214.5V2216H2869V2068H2800V2070.5C2800 2071.33 2799.33 2072 2798.5 2072C2797.67 2072 2797 2071.33 2797 2070.5V2050.5C2797 2049.67 2797.67 2049 2798.5 2049C2799.33 2049 2800 2049.67 2800 2050.5V2065H2869V1988H2800V2034.5C2800 2035.33 2799.33 2036 2798.5 2036C2797.67 2036 2797 2035.33 2797 2034.5V1986.5C2797 1985.67 2797.67 1985 2798.5 1985H2869V1844H2704V1985H2775.5C2776.33 1985 2777 1985.67 2777 1986.5V2034.5C2777 2035.33 2776.33 2036 2775.5 2036C2774.67 2036 2774 2035.33 2774 2034.5V1988H2704V2065H2774V2050.5C2774 2049.67 2774.67 2049 2775.5 2049C2776.33 2049 2777 2049.67 2777 2050.5V2066.5C2777 2067.28 2776.41 2067.92 2775.65 2067.99C2775.6 2068 2775.55 2068 2775.5 2068H2692.5C2691.67 2068 2691 2067.33 2691 2066.5C2691 2065.67 2691.67 2065 2692.5 2065H2701V1842.5C2701 1841.67 2701.67 1841 2702.5 1841H2870.5C2870.55 1841 2870.6 1841 2870.65 1841.01ZM2775.5 2323C2776.33 2323 2777 2323.67 2777 2324.5V2360.5C2777 2361.33 2776.33 2362 2775.5 2362C2774.67 2362 2774 2361.33 2774 2360.5V2324.5C2774 2323.67 2774.67 2323 2775.5 2323ZM2798.5 2234C2799.33 2234 2800 2234.67 2800 2235.5V2358.5C2800 2359.33 2799.33 2360 2798.5 2360C2797.67 2360 2797 2359.33 2797 2358.5V2235.5C2797 2234.67 2797.67 2234 2798.5 2234ZM2775.5 2161C2776.33 2161 2777 2161.67 2777 2162.5V2284.5C2777 2285.33 2776.33 2286 2775.5 2286C2774.67 2286 2774 2285.33 2774 2284.5V2162.5C2774 2161.67 2774.67 2161 2775.5 2161ZM2798.5 2083C2799.33 2083 2800 2083.67 2800 2084.5V2199.5C2800 2200.33 2799.33 2201 2798.5 2201C2797.67 2201 2797 2200.33 2797 2199.5V2084.5C2797 2083.67 2797.67 2083 2798.5 2083ZM2775.5 2093C2776.33 2093 2777 2093.67 2777 2094.5V2124.5C2777 2125.33 2776.33 2126 2775.5 2126H2714.5C2713.67 2126 2713 2125.33 2713 2124.5C2713 2123.67 2713.67 2123 2714.5 2123H2774V2096H2714.5C2713.67 2096 2713 2095.33 2713 2094.5C2713 2093.67 2713.67 2093 2714.5 2093H2775.5Z"
    fill="#FF0000"
  />
  <path
    id="778"
    d="M2750 2104C2750 2103.45 2750.45 2103 2751 2103H2755C2755.55 2103 2756 2103.45 2756 2104C2756 2104.55 2755.55 2105 2755 2105H2752V2108C2752 2108.55 2751.55 2109 2751 2109H2748V2112C2748 2112.55 2747.55 2113 2747 2113H2744V2116C2744 2116.55 2743.55 2117 2743 2117H2739C2738.45 2117 2738 2116.55 2738 2116C2738 2115.45 2738.45 2115 2739 2115H2742V2112C2742 2111.45 2742.45 2111 2743 2111H2746V2108C2746 2107.45 2746.45 2107 2747 2107H2750V2104Z"
    fill="black"
  />
  <path
    id="779"
    d="M2690 2049C2690 2048.45 2690.45 2048 2691 2048H2695C2695.55 2048 2696 2048.45 2696 2049C2696 2049.55 2695.55 2050 2695 2050H2692V2053C2692 2053.55 2691.55 2054 2691 2054H2688V2057C2688 2057.55 2687.55 2058 2687 2058H2684V2061C2684 2061.55 2683.55 2062 2683 2062H2679C2678.45 2062 2678 2061.55 2678 2061C2678 2060.45 2678.45 2060 2679 2060H2682V2057C2682 2056.45 2682.45 2056 2683 2056H2686V2053C2686 2052.45 2686.45 2052 2687 2052H2690V2049Z"
    fill="black"
  />
  <path
    id="Union"
    d="M2641.8 2109.67C2642.86 2109.67 2643.85 2110.17 2644.48 2111.02L2646.24 2113.39C2646.5 2113.75 2646.43 2114.25 2646.08 2114.51C2645.72 2114.78 2645.22 2114.7 2644.96 2114.35L2643.8 2112.79V2118.87H2650.6C2651.04 2118.87 2651.4 2119.23 2651.4 2119.67C2651.4 2120.11 2651.04 2120.47 2650.6 2120.47H2637.8C2637.36 2120.47 2637 2120.11 2637 2119.67C2637 2119.23 2637.36 2118.87 2637.8 2118.87H2639.8V2112.79L2638.64 2114.35C2638.38 2114.7 2637.88 2114.78 2637.52 2114.51C2637.17 2114.25 2637.09 2113.75 2637.36 2113.39L2639.12 2111.02C2639.75 2110.17 2640.74 2109.67 2641.8 2109.67ZM2641.8 2115.27C2641.58 2115.27 2641.4 2115.45 2641.4 2115.67V2118.87H2642.2V2115.67C2642.2 2115.45 2642.02 2115.27 2641.8 2115.27ZM2648.03 2106.3C2648.34 2105.99 2648.85 2105.99 2649.17 2106.3L2651.17 2108.3C2651.48 2108.62 2651.48 2109.13 2651.17 2109.44V2109.43C2650.85 2109.75 2650.34 2109.75 2650.03 2109.43L2649.4 2108.8V2112.47C2649.4 2112.91 2649.04 2113.27 2648.6 2113.27C2648.16 2113.27 2647.8 2112.91 2647.8 2112.47V2108.8L2647.17 2109.44C2646.85 2109.75 2646.34 2109.75 2646.03 2109.44C2645.72 2109.12 2645.72 2108.62 2646.03 2108.3L2648.03 2106.3ZM2654.14 2106C2654.36 2106 2654.94 2106.21 2654.94 2106.67V2110.39L2655.74 2109.67C2655.9 2109.51 2656.58 2109.51 2656.74 2109.67C2657.24 2110.17 2656.89 2110.8 2656.74 2110.95L2654.57 2112.95C2654.41 2113.11 2653.75 2113.11 2653.59 2112.95L2651.74 2111.17C2651.24 2110.67 2651.24 2110.17 2651.74 2109.67C2651.9 2109.51 2652.58 2109.51 2652.74 2109.67L2653.33 2110.39V2106.67C2653.33 2106.15 2653.92 2106 2654.14 2106ZM2641.8 2106.07C2642.57 2106.07 2643.2 2106.7 2643.2 2107.47C2643.2 2108.24 2642.57 2108.87 2641.8 2108.87C2641.03 2108.87 2640.4 2108.24 2640.4 2107.47C2640.4 2106.7 2641.03 2106.07 2641.8 2106.07Z"
    fill="black"
  />
  <path
    id="Vector"
    d="M2728.37 2333.06C2728.37 2331.92 2729.28 2331 2730.4 2331C2731.52 2331 2732.42 2331.92 2732.42 2333.06C2732.42 2334.2 2731.52 2335.12 2730.4 2335.12C2729.28 2335.12 2728.37 2334.2 2728.37 2333.06ZM2730.06 2346.12V2351.62C2730.06 2352.39 2729.46 2353 2728.71 2353C2727.97 2353 2727.36 2352.39 2727.36 2351.62V2344.97C2727.02 2345.37 2726.47 2345.54 2725.95 2345.38C2725.24 2345.15 2724.84 2344.38 2725.06 2343.65L2726.32 2339.56C2726.87 2337.74 2728.53 2336.5 2730.4 2336.5C2732.27 2336.5 2733.93 2337.74 2734.48 2339.56L2735.74 2343.65C2735.96 2344.38 2735.56 2345.15 2734.85 2345.37C2734.33 2345.54 2733.78 2345.36 2733.44 2344.97V2351.62C2733.44 2352.39 2732.83 2353 2732.09 2353C2731.34 2353 2730.74 2352.39 2730.74 2351.62V2346.12H2730.06ZM2738.5 2331C2739.06 2331 2739.51 2331.46 2739.51 2332.03V2351.97C2739.51 2352.54 2739.06 2353 2738.5 2353C2737.94 2353 2737.49 2352.54 2737.49 2351.97V2332.03C2737.49 2331.46 2737.94 2331 2738.5 2331ZM2744.58 2333.06C2744.58 2331.92 2745.48 2331 2746.6 2331C2747.72 2331 2748.63 2331.92 2748.63 2333.06C2748.63 2334.2 2747.72 2335.12 2746.6 2335.12C2745.48 2335.12 2744.58 2334.2 2744.58 2333.06ZM2743.56 2351.62V2347.5H2742.81C2742.35 2347.5 2742.03 2347.04 2742.17 2346.59L2742.55 2345.44C2742.42 2345.44 2742.28 2345.42 2742.15 2345.37C2741.44 2345.15 2741.04 2344.38 2741.26 2343.65L2742.52 2339.56C2743.07 2337.74 2744.73 2336.5 2746.6 2336.5C2748.47 2336.5 2750.13 2337.74 2750.68 2339.56L2751.94 2343.65C2752.16 2344.38 2751.76 2345.15 2751.05 2345.37C2750.92 2345.42 2750.78 2345.44 2750.65 2345.44L2751.03 2346.59C2751.18 2347.04 2750.85 2347.5 2750.39 2347.5H2749.64V2351.62C2749.64 2352.39 2749.03 2353 2748.29 2353C2747.54 2353 2746.94 2352.39 2746.94 2351.62V2347.5H2746.26V2351.62C2746.26 2352.39 2745.66 2353 2744.91 2353C2744.17 2353 2743.56 2352.39 2743.56 2351.62Z"
    fill="black"
  />
  <g id="labels">
    <path
      id="183_2"
      d="M2778.13 1920.36V1937.81H2776.02V1922.58H2775.92L2771.66 1925.41V1923.26L2776.02 1920.36H2778.13ZM2788.74 1938.05C2787.57 1938.05 2786.54 1937.85 2785.64 1937.43C2784.75 1937.01 2784.05 1936.43 2783.55 1935.7C2783.05 1934.96 2782.81 1934.12 2782.81 1933.18C2782.81 1932.44 2782.95 1931.76 2783.25 1931.13C2783.54 1930.5 2783.95 1929.98 2784.46 1929.56C2784.98 1929.13 2785.55 1928.86 2786.19 1928.75V1928.64C2785.35 1928.43 2784.69 1927.96 2784.19 1927.24C2783.7 1926.51 2783.46 1925.68 2783.46 1924.76C2783.46 1923.87 2783.68 1923.08 2784.13 1922.38C2784.59 1921.68 2785.21 1921.13 2786.01 1920.73C2786.81 1920.32 2787.72 1920.12 2788.74 1920.12C2789.76 1920.12 2790.66 1920.32 2791.46 1920.73C2792.25 1921.13 2792.88 1921.68 2793.33 1922.38C2793.79 1923.08 2794.02 1923.87 2794.03 1924.76C2794.02 1925.68 2793.77 1926.51 2793.27 1927.24C2792.78 1927.96 2792.12 1928.43 2791.3 1928.64V1928.75C2791.93 1928.86 2792.5 1929.13 2793.01 1929.56C2793.51 1929.98 2793.92 1930.5 2794.22 1931.13C2794.52 1931.76 2794.67 1932.44 2794.68 1933.18C2794.67 1934.12 2794.42 1934.96 2793.91 1935.7C2793.41 1936.43 2792.71 1937.01 2791.82 1937.43C2790.94 1937.85 2789.91 1938.05 2788.74 1938.05ZM2788.74 1936.18C2789.53 1936.18 2790.22 1936.05 2790.79 1935.8C2791.36 1935.54 2791.81 1935.18 2792.12 1934.71C2792.43 1934.25 2792.59 1933.7 2792.6 1933.08C2792.59 1932.42 2792.42 1931.83 2792.09 1931.33C2791.75 1930.82 2791.29 1930.43 2790.71 1930.14C2790.14 1929.85 2789.48 1929.7 2788.74 1929.7C2788 1929.7 2787.34 1929.85 2786.75 1930.14C2786.17 1930.43 2785.71 1930.82 2785.38 1931.33C2785.05 1931.83 2784.89 1932.42 2784.89 1933.08C2784.89 1933.7 2785.04 1934.25 2785.34 1934.71C2785.66 1935.18 2786.1 1935.54 2786.68 1935.8C2787.26 1936.05 2787.95 1936.18 2788.74 1936.18ZM2788.74 1927.89C2789.37 1927.89 2789.92 1927.77 2790.41 1927.52C2790.9 1927.27 2791.28 1926.92 2791.56 1926.47C2791.84 1926.02 2791.98 1925.5 2791.98 1924.89C2791.98 1924.3 2791.84 1923.79 2791.57 1923.35C2791.29 1922.91 2790.92 1922.57 2790.43 1922.33C2789.95 1922.08 2789.39 1921.96 2788.74 1921.96C2788.09 1921.96 2787.52 1922.08 2787.03 1922.33C2786.54 1922.57 2786.17 1922.91 2785.9 1923.35C2785.63 1923.79 2785.5 1924.3 2785.51 1924.89C2785.5 1925.5 2785.63 1926.02 2785.91 1926.47C2786.19 1926.92 2786.57 1927.27 2787.06 1927.52C2787.55 1927.77 2788.11 1927.89 2788.74 1927.89ZM2803.84 1938.05C2802.72 1938.05 2801.71 1937.86 2800.83 1937.47C2799.96 1937.09 2799.26 1936.55 2798.74 1935.86C2798.23 1935.17 2797.95 1934.37 2797.91 1933.45H2800.06C2800.1 1934.01 2800.3 1934.5 2800.64 1934.91C2800.98 1935.31 2801.42 1935.62 2801.97 1935.85C2802.53 1936.07 2803.14 1936.18 2803.81 1936.18C2804.56 1936.18 2805.22 1936.05 2805.8 1935.79C2806.38 1935.53 2806.84 1935.16 2807.16 1934.7C2807.49 1934.23 2807.66 1933.69 2807.66 1933.08C2807.66 1932.43 2807.5 1931.87 2807.18 1931.38C2806.86 1930.89 2806.4 1930.5 2805.78 1930.22C2805.17 1929.94 2804.42 1929.8 2803.53 1929.8H2802.14V1927.93H2803.53C2804.23 1927.93 2804.84 1927.8 2805.36 1927.55C2805.89 1927.3 2806.3 1926.95 2806.59 1926.5C2806.89 1926.04 2807.05 1925.51 2807.05 1924.89C2807.05 1924.3 2806.91 1923.79 2806.65 1923.35C2806.39 1922.91 2806.02 1922.57 2805.55 1922.33C2805.07 1922.08 2804.52 1921.96 2803.87 1921.96C2803.27 1921.96 2802.7 1922.07 2802.17 1922.3C2801.64 1922.51 2801.21 1922.83 2800.87 1923.24C2800.54 1923.65 2800.36 1924.14 2800.33 1924.72H2798.28C2798.32 1923.81 2798.59 1923.01 2799.11 1922.32C2799.63 1921.63 2800.3 1921.09 2801.14 1920.7C2801.98 1920.31 2802.9 1920.12 2803.91 1920.12C2804.99 1920.12 2805.91 1920.34 2806.69 1920.78C2807.46 1921.21 2808.05 1921.78 2808.47 1922.49C2808.88 1923.2 2809.09 1923.97 2809.09 1924.79C2809.09 1925.78 2808.83 1926.61 2808.32 1927.31C2807.8 1928 2807.11 1928.48 2806.23 1928.75V1928.88C2807.33 1929.06 2808.19 1929.53 2808.81 1930.29C2809.43 1931.04 2809.74 1931.97 2809.74 1933.08C2809.74 1934.03 2809.48 1934.88 2808.96 1935.63C2808.45 1936.38 2807.75 1936.97 2806.87 1937.41C2805.98 1937.84 2804.97 1938.05 2803.84 1938.05Z"
      fill="black"
    />
    <path
      id="184_2"
      d="M2729.94 2016.55V2034H2727.83V2018.76H2727.73L2723.47 2021.59V2019.44L2727.83 2016.55H2729.94ZM2740.55 2034.24C2739.38 2034.24 2738.35 2034.03 2737.45 2033.62C2736.56 2033.2 2735.86 2032.62 2735.36 2031.89C2734.86 2031.15 2734.62 2030.31 2734.62 2029.36C2734.62 2028.62 2734.76 2027.94 2735.06 2027.32C2735.35 2026.69 2735.76 2026.16 2736.27 2025.74C2736.78 2025.32 2737.36 2025.05 2738 2024.93V2024.83C2737.16 2024.61 2736.5 2024.14 2736 2023.42C2735.51 2022.7 2735.26 2021.87 2735.27 2020.94C2735.26 2020.06 2735.49 2019.26 2735.94 2018.57C2736.4 2017.87 2737.02 2017.32 2737.82 2016.91C2738.62 2016.51 2739.53 2016.31 2740.55 2016.31C2741.57 2016.31 2742.47 2016.51 2743.26 2016.91C2744.06 2017.32 2744.68 2017.87 2745.14 2018.57C2745.6 2019.26 2745.83 2020.06 2745.84 2020.94C2745.83 2021.87 2745.58 2022.7 2745.08 2023.42C2744.59 2024.14 2743.93 2024.61 2743.11 2024.83V2024.93C2743.74 2025.05 2744.31 2025.32 2744.82 2025.74C2745.32 2026.16 2745.72 2026.69 2746.03 2027.32C2746.33 2027.94 2746.48 2028.62 2746.49 2029.36C2746.48 2030.31 2746.22 2031.15 2745.72 2031.89C2745.22 2032.62 2744.52 2033.2 2743.63 2033.62C2742.74 2034.03 2741.72 2034.24 2740.55 2034.24ZM2740.55 2032.36C2741.34 2032.36 2742.03 2032.24 2742.6 2031.98C2743.17 2031.72 2743.62 2031.36 2743.93 2030.9C2744.24 2030.43 2744.4 2029.89 2744.41 2029.26C2744.4 2028.6 2744.23 2028.02 2743.89 2027.51C2743.56 2027.01 2743.1 2026.61 2742.52 2026.32C2741.95 2026.03 2741.29 2025.89 2740.55 2025.89C2739.81 2025.89 2739.14 2026.03 2738.56 2026.32C2737.98 2026.61 2737.52 2027.01 2737.19 2027.51C2736.86 2028.02 2736.7 2028.6 2736.7 2029.26C2736.7 2029.89 2736.85 2030.43 2737.15 2030.9C2737.47 2031.36 2737.91 2031.72 2738.49 2031.98C2739.07 2032.24 2739.76 2032.36 2740.55 2032.36ZM2740.55 2024.08C2741.18 2024.08 2741.73 2023.95 2742.22 2023.7C2742.7 2023.45 2743.09 2023.11 2743.37 2022.66C2743.64 2022.21 2743.79 2021.68 2743.79 2021.08C2743.79 2020.49 2743.65 2019.97 2743.38 2019.54C2743.1 2019.09 2742.72 2018.75 2742.24 2018.51C2741.76 2018.27 2741.2 2018.15 2740.55 2018.15C2739.9 2018.15 2739.33 2018.27 2738.84 2018.51C2738.35 2018.75 2737.97 2019.09 2737.71 2019.54C2737.44 2019.97 2737.31 2020.49 2737.32 2021.08C2737.31 2021.68 2737.44 2022.21 2737.72 2022.66C2737.99 2023.11 2738.38 2023.45 2738.87 2023.7C2739.36 2023.95 2739.92 2024.08 2740.55 2024.08ZM2749.34 2030.42V2028.68L2757.01 2016.55H2758.27V2019.24H2757.42L2751.63 2028.41V2028.55H2761.96V2030.42H2749.34ZM2757.56 2034V2029.89V2029.08V2016.55H2759.57V2034H2757.56Z"
      fill="black"
    />
    <path
      id="185_2"
      d="M2820.94 2019.55V2037H2818.83V2021.76H2818.73L2814.47 2024.59V2022.44L2818.83 2019.55H2820.94ZM2831.55 2037.24C2830.38 2037.24 2829.35 2037.03 2828.45 2036.62C2827.56 2036.2 2826.86 2035.62 2826.36 2034.89C2825.86 2034.15 2825.62 2033.31 2825.62 2032.36C2825.62 2031.62 2825.76 2030.94 2826.06 2030.32C2826.35 2029.69 2826.76 2029.16 2827.27 2028.74C2827.78 2028.32 2828.36 2028.05 2829 2027.93V2027.83C2828.16 2027.61 2827.5 2027.14 2827 2026.42C2826.51 2025.7 2826.26 2024.87 2826.27 2023.94C2826.26 2023.06 2826.49 2022.26 2826.94 2021.57C2827.4 2020.87 2828.02 2020.32 2828.82 2019.91C2829.62 2019.51 2830.53 2019.31 2831.55 2019.31C2832.57 2019.31 2833.47 2019.51 2834.26 2019.91C2835.06 2020.32 2835.68 2020.87 2836.14 2021.57C2836.6 2022.26 2836.83 2023.06 2836.84 2023.94C2836.83 2024.87 2836.58 2025.7 2836.08 2026.42C2835.59 2027.14 2834.93 2027.61 2834.11 2027.83V2027.93C2834.74 2028.05 2835.31 2028.32 2835.82 2028.74C2836.32 2029.16 2836.72 2029.69 2837.03 2030.32C2837.33 2030.94 2837.48 2031.62 2837.49 2032.36C2837.48 2033.31 2837.22 2034.15 2836.72 2034.89C2836.22 2035.62 2835.52 2036.2 2834.63 2036.62C2833.74 2037.03 2832.72 2037.24 2831.55 2037.24ZM2831.55 2035.36C2832.34 2035.36 2833.03 2035.24 2833.6 2034.98C2834.17 2034.72 2834.62 2034.36 2834.93 2033.9C2835.24 2033.43 2835.4 2032.89 2835.41 2032.26C2835.4 2031.6 2835.23 2031.02 2834.89 2030.51C2834.56 2030.01 2834.1 2029.61 2833.52 2029.32C2832.95 2029.03 2832.29 2028.89 2831.55 2028.89C2830.81 2028.89 2830.14 2029.03 2829.56 2029.32C2828.98 2029.61 2828.52 2030.01 2828.19 2030.51C2827.86 2031.02 2827.7 2031.6 2827.7 2032.26C2827.7 2032.89 2827.85 2033.43 2828.15 2033.9C2828.47 2034.36 2828.91 2034.72 2829.49 2034.98C2830.07 2035.24 2830.76 2035.36 2831.55 2035.36ZM2831.55 2027.08C2832.18 2027.08 2832.73 2026.95 2833.22 2026.7C2833.7 2026.45 2834.09 2026.11 2834.37 2025.66C2834.64 2025.21 2834.79 2024.68 2834.79 2024.08C2834.79 2023.49 2834.65 2022.97 2834.38 2022.54C2834.1 2022.09 2833.72 2021.75 2833.24 2021.51C2832.76 2021.27 2832.2 2021.15 2831.55 2021.15C2830.9 2021.15 2830.33 2021.27 2829.84 2021.51C2829.35 2021.75 2828.97 2022.09 2828.71 2022.54C2828.44 2022.97 2828.31 2023.49 2828.32 2024.08C2828.31 2024.68 2828.44 2025.21 2828.72 2025.66C2828.99 2026.11 2829.38 2026.45 2829.87 2026.7C2830.36 2026.95 2830.92 2027.08 2831.55 2027.08ZM2846.21 2037.24C2845.21 2037.24 2844.31 2037.04 2843.5 2036.64C2842.7 2036.24 2842.06 2035.7 2841.58 2035.01C2841.1 2034.31 2840.83 2033.52 2840.79 2032.64H2842.83C2842.91 2033.43 2843.27 2034.08 2843.91 2034.6C2844.55 2035.11 2845.31 2035.36 2846.21 2035.36C2846.92 2035.36 2847.56 2035.2 2848.12 2034.86C2848.68 2034.53 2849.12 2034.07 2849.44 2033.48C2849.76 2032.89 2849.92 2032.22 2849.92 2031.48C2849.92 2030.72 2849.75 2030.04 2849.42 2029.44C2849.09 2028.84 2848.64 2028.36 2848.06 2028.02C2847.48 2027.67 2846.81 2027.49 2846.07 2027.49C2845.54 2027.48 2844.99 2027.57 2844.43 2027.74C2843.86 2027.9 2843.4 2028.11 2843.04 2028.38L2841.06 2028.14L2842.12 2019.55H2851.18V2021.42H2843.89L2843.27 2026.57H2843.38C2843.74 2026.28 2844.18 2026.05 2844.72 2025.86C2845.26 2025.67 2845.83 2025.58 2846.41 2025.58C2847.48 2025.58 2848.43 2025.84 2849.27 2026.35C2850.11 2026.85 2850.77 2027.55 2851.24 2028.43C2851.73 2029.31 2851.97 2030.31 2851.97 2031.44C2851.97 2032.56 2851.72 2033.55 2851.22 2034.43C2850.72 2035.3 2850.04 2035.98 2849.17 2036.49C2848.3 2036.99 2847.31 2037.24 2846.21 2037.24Z"
      fill="black"
    />
    <path
      id="186_2"
      d="M2824.94 2126.55V2144H2822.83V2128.76H2822.73L2818.47 2131.59V2129.44L2822.83 2126.55H2824.94ZM2835.55 2144.24C2834.38 2144.24 2833.35 2144.03 2832.45 2143.62C2831.56 2143.2 2830.86 2142.62 2830.36 2141.89C2829.86 2141.15 2829.62 2140.31 2829.62 2139.36C2829.62 2138.62 2829.76 2137.94 2830.06 2137.32C2830.35 2136.69 2830.76 2136.16 2831.27 2135.74C2831.78 2135.32 2832.36 2135.05 2833 2134.93V2134.83C2832.16 2134.61 2831.5 2134.14 2831 2133.42C2830.51 2132.7 2830.26 2131.87 2830.27 2130.94C2830.26 2130.06 2830.49 2129.26 2830.94 2128.57C2831.4 2127.87 2832.02 2127.32 2832.82 2126.91C2833.62 2126.51 2834.53 2126.31 2835.55 2126.31C2836.57 2126.31 2837.47 2126.51 2838.26 2126.91C2839.06 2127.32 2839.68 2127.87 2840.14 2128.57C2840.6 2129.26 2840.83 2130.06 2840.84 2130.94C2840.83 2131.87 2840.58 2132.7 2840.08 2133.42C2839.59 2134.14 2838.93 2134.61 2838.11 2134.83V2134.93C2838.74 2135.05 2839.31 2135.32 2839.82 2135.74C2840.32 2136.16 2840.72 2136.69 2841.03 2137.32C2841.33 2137.94 2841.48 2138.62 2841.49 2139.36C2841.48 2140.31 2841.22 2141.15 2840.72 2141.89C2840.22 2142.62 2839.52 2143.2 2838.63 2143.62C2837.74 2144.03 2836.72 2144.24 2835.55 2144.24ZM2835.55 2142.36C2836.34 2142.36 2837.03 2142.24 2837.6 2141.98C2838.17 2141.72 2838.62 2141.36 2838.93 2140.9C2839.24 2140.43 2839.4 2139.89 2839.41 2139.26C2839.4 2138.6 2839.23 2138.02 2838.89 2137.51C2838.56 2137.01 2838.1 2136.61 2837.52 2136.32C2836.95 2136.03 2836.29 2135.89 2835.55 2135.89C2834.81 2135.89 2834.14 2136.03 2833.56 2136.32C2832.98 2136.61 2832.52 2137.01 2832.19 2137.51C2831.86 2138.02 2831.7 2138.6 2831.7 2139.26C2831.7 2139.89 2831.85 2140.43 2832.15 2140.9C2832.47 2141.36 2832.91 2141.72 2833.49 2141.98C2834.07 2142.24 2834.76 2142.36 2835.55 2142.36ZM2835.55 2134.08C2836.18 2134.08 2836.73 2133.95 2837.22 2133.7C2837.7 2133.45 2838.09 2133.11 2838.37 2132.66C2838.64 2132.21 2838.79 2131.68 2838.79 2131.08C2838.79 2130.49 2838.65 2129.97 2838.38 2129.54C2838.1 2129.09 2837.72 2128.75 2837.24 2128.51C2836.76 2128.27 2836.2 2128.15 2835.55 2128.15C2834.9 2128.15 2834.33 2128.27 2833.84 2128.51C2833.35 2128.75 2832.97 2129.09 2832.71 2129.54C2832.44 2129.97 2832.31 2130.49 2832.32 2131.08C2832.31 2131.68 2832.44 2132.21 2832.72 2132.66C2832.99 2133.11 2833.38 2133.45 2833.87 2133.7C2834.36 2133.95 2834.92 2134.08 2835.55 2134.08ZM2850.55 2144.24C2849.83 2144.23 2849.12 2144.09 2848.4 2143.83C2847.68 2143.57 2847.03 2143.13 2846.44 2142.51C2845.85 2141.88 2845.37 2141.04 2845.02 2139.98C2844.66 2138.91 2844.48 2137.57 2844.48 2135.95C2844.48 2134.41 2844.62 2133.04 2844.91 2131.85C2845.2 2130.65 2845.62 2129.64 2846.18 2128.82C2846.73 2128 2847.39 2127.37 2848.17 2126.95C2848.95 2126.52 2849.84 2126.31 2850.82 2126.31C2851.8 2126.31 2852.67 2126.5 2853.43 2126.89C2854.2 2127.28 2854.82 2127.82 2855.3 2128.51C2855.79 2129.21 2856.1 2130.01 2856.24 2130.91H2854.16C2853.97 2130.12 2853.59 2129.47 2853.04 2128.96C2852.48 2128.44 2851.74 2128.18 2850.82 2128.18C2849.47 2128.18 2848.4 2128.77 2847.62 2129.95C2846.85 2131.12 2846.46 2132.77 2846.46 2134.9H2846.59C2846.91 2134.41 2847.29 2134 2847.73 2133.66C2848.17 2133.32 2848.66 2133.05 2849.19 2132.86C2849.73 2132.67 2850.29 2132.58 2850.89 2132.58C2851.89 2132.58 2852.8 2132.83 2853.63 2133.33C2854.46 2133.82 2855.13 2134.51 2855.63 2135.38C2856.13 2136.25 2856.38 2137.25 2856.38 2138.38C2856.38 2139.45 2856.14 2140.44 2855.65 2141.34C2855.17 2142.23 2854.49 2142.94 2853.62 2143.47C2852.75 2143.99 2851.72 2144.25 2850.55 2144.24ZM2850.55 2142.36C2851.26 2142.36 2851.91 2142.18 2852.47 2141.83C2853.05 2141.47 2853.5 2140.99 2853.83 2140.39C2854.16 2139.78 2854.33 2139.11 2854.33 2138.38C2854.33 2137.65 2854.17 2137 2853.85 2136.41C2853.53 2135.81 2853.09 2135.34 2852.52 2134.98C2851.97 2134.63 2851.33 2134.45 2850.62 2134.45C2850.08 2134.45 2849.57 2134.56 2849.11 2134.78C2848.64 2134.99 2848.23 2135.28 2847.88 2135.65C2847.53 2136.02 2847.26 2136.44 2847.06 2136.92C2846.86 2137.39 2846.76 2137.89 2846.76 2138.41C2846.76 2139.1 2846.93 2139.75 2847.25 2140.35C2847.58 2140.95 2848.03 2141.44 2848.6 2141.81C2849.17 2142.18 2849.82 2142.36 2850.55 2142.36Z"
      fill="black"
    />
    <path
      id="187_2"
      d="M2725.94 2200.55V2218H2723.83V2202.76H2723.73L2719.47 2205.59V2203.44L2723.83 2200.55H2725.94ZM2736.55 2218.24C2735.38 2218.24 2734.35 2218.03 2733.45 2217.62C2732.56 2217.2 2731.86 2216.62 2731.36 2215.89C2730.86 2215.15 2730.62 2214.31 2730.62 2213.36C2730.62 2212.62 2730.76 2211.94 2731.06 2211.32C2731.35 2210.69 2731.76 2210.16 2732.27 2209.74C2732.78 2209.32 2733.36 2209.05 2734 2208.93V2208.83C2733.16 2208.61 2732.5 2208.14 2732 2207.42C2731.51 2206.7 2731.26 2205.87 2731.27 2204.94C2731.26 2204.06 2731.49 2203.26 2731.94 2202.57C2732.4 2201.87 2733.02 2201.32 2733.82 2200.91C2734.62 2200.51 2735.53 2200.31 2736.55 2200.31C2737.57 2200.31 2738.47 2200.51 2739.26 2200.91C2740.06 2201.32 2740.68 2201.87 2741.14 2202.57C2741.6 2203.26 2741.83 2204.06 2741.84 2204.94C2741.83 2205.87 2741.58 2206.7 2741.08 2207.42C2740.59 2208.14 2739.93 2208.61 2739.11 2208.83V2208.93C2739.74 2209.05 2740.31 2209.32 2740.82 2209.74C2741.32 2210.16 2741.72 2210.69 2742.03 2211.32C2742.33 2211.94 2742.48 2212.62 2742.49 2213.36C2742.48 2214.31 2742.22 2215.15 2741.72 2215.89C2741.22 2216.62 2740.52 2217.2 2739.63 2217.62C2738.74 2218.03 2737.72 2218.24 2736.55 2218.24ZM2736.55 2216.36C2737.34 2216.36 2738.03 2216.24 2738.6 2215.98C2739.17 2215.72 2739.62 2215.36 2739.93 2214.9C2740.24 2214.43 2740.4 2213.89 2740.41 2213.26C2740.4 2212.6 2740.23 2212.02 2739.89 2211.51C2739.56 2211.01 2739.1 2210.61 2738.52 2210.32C2737.95 2210.03 2737.29 2209.89 2736.55 2209.89C2735.81 2209.89 2735.14 2210.03 2734.56 2210.32C2733.98 2210.61 2733.52 2211.01 2733.19 2211.51C2732.86 2212.02 2732.7 2212.6 2732.7 2213.26C2732.7 2213.89 2732.85 2214.43 2733.15 2214.9C2733.47 2215.36 2733.91 2215.72 2734.49 2215.98C2735.07 2216.24 2735.76 2216.36 2736.55 2216.36ZM2736.55 2208.08C2737.18 2208.08 2737.73 2207.95 2738.22 2207.7C2738.7 2207.45 2739.09 2207.11 2739.37 2206.66C2739.64 2206.21 2739.79 2205.68 2739.79 2205.08C2739.79 2204.49 2739.65 2203.97 2739.38 2203.54C2739.1 2203.09 2738.72 2202.75 2738.24 2202.51C2737.76 2202.27 2737.2 2202.15 2736.55 2202.15C2735.9 2202.15 2735.33 2202.27 2734.84 2202.51C2734.35 2202.75 2733.97 2203.09 2733.71 2203.54C2733.44 2203.97 2733.31 2204.49 2733.32 2205.08C2733.31 2205.68 2733.44 2206.21 2733.72 2206.66C2733.99 2207.11 2734.38 2207.45 2734.87 2207.7C2735.36 2207.95 2735.92 2208.08 2736.55 2208.08ZM2746.3 2218L2754.1 2202.56V2202.42H2745.1V2200.55H2756.29V2202.52L2748.51 2218H2746.3Z"
      fill="black"
    />
    <path
      id="188_2"
      d="M2824.94 2278.55V2296H2822.83V2280.76H2822.73L2818.47 2283.59V2281.44L2822.83 2278.55H2824.94ZM2835.55 2296.24C2834.38 2296.24 2833.35 2296.03 2832.45 2295.62C2831.56 2295.2 2830.86 2294.62 2830.36 2293.89C2829.86 2293.15 2829.62 2292.31 2829.62 2291.36C2829.62 2290.62 2829.76 2289.94 2830.06 2289.32C2830.35 2288.69 2830.76 2288.16 2831.27 2287.74C2831.78 2287.32 2832.36 2287.05 2833 2286.93V2286.83C2832.16 2286.61 2831.5 2286.14 2831 2285.42C2830.51 2284.7 2830.26 2283.87 2830.27 2282.94C2830.26 2282.06 2830.49 2281.26 2830.94 2280.57C2831.4 2279.87 2832.02 2279.32 2832.82 2278.91C2833.62 2278.51 2834.53 2278.31 2835.55 2278.31C2836.57 2278.31 2837.47 2278.51 2838.26 2278.91C2839.06 2279.32 2839.68 2279.87 2840.14 2280.57C2840.6 2281.26 2840.83 2282.06 2840.84 2282.94C2840.83 2283.87 2840.58 2284.7 2840.08 2285.42C2839.59 2286.14 2838.93 2286.61 2838.11 2286.83V2286.93C2838.74 2287.05 2839.31 2287.32 2839.82 2287.74C2840.32 2288.16 2840.72 2288.69 2841.03 2289.32C2841.33 2289.94 2841.48 2290.62 2841.49 2291.36C2841.48 2292.31 2841.22 2293.15 2840.72 2293.89C2840.22 2294.62 2839.52 2295.2 2838.63 2295.62C2837.74 2296.03 2836.72 2296.24 2835.55 2296.24ZM2835.55 2294.36C2836.34 2294.36 2837.03 2294.24 2837.6 2293.98C2838.17 2293.72 2838.62 2293.36 2838.93 2292.9C2839.24 2292.43 2839.4 2291.89 2839.41 2291.26C2839.4 2290.6 2839.23 2290.02 2838.89 2289.51C2838.56 2289.01 2838.1 2288.61 2837.52 2288.32C2836.95 2288.03 2836.29 2287.89 2835.55 2287.89C2834.81 2287.89 2834.14 2288.03 2833.56 2288.32C2832.98 2288.61 2832.52 2289.01 2832.19 2289.51C2831.86 2290.02 2831.7 2290.6 2831.7 2291.26C2831.7 2291.89 2831.85 2292.43 2832.15 2292.9C2832.47 2293.36 2832.91 2293.72 2833.49 2293.98C2834.07 2294.24 2834.76 2294.36 2835.55 2294.36ZM2835.55 2286.08C2836.18 2286.08 2836.73 2285.95 2837.22 2285.7C2837.7 2285.45 2838.09 2285.11 2838.37 2284.66C2838.64 2284.21 2838.79 2283.68 2838.79 2283.08C2838.79 2282.49 2838.65 2281.97 2838.38 2281.54C2838.1 2281.09 2837.72 2280.75 2837.24 2280.51C2836.76 2280.27 2836.2 2280.15 2835.55 2280.15C2834.9 2280.15 2834.33 2280.27 2833.84 2280.51C2833.35 2280.75 2832.97 2281.09 2832.71 2281.54C2832.44 2281.97 2832.31 2282.49 2832.32 2283.08C2832.31 2283.68 2832.44 2284.21 2832.72 2284.66C2832.99 2285.11 2833.38 2285.45 2833.87 2285.7C2834.36 2285.95 2834.92 2286.08 2835.55 2286.08ZM2850.34 2296.24C2849.17 2296.24 2848.14 2296.03 2847.24 2295.62C2846.35 2295.2 2845.65 2294.62 2845.15 2293.89C2844.65 2293.15 2844.41 2292.31 2844.41 2291.36C2844.41 2290.62 2844.55 2289.94 2844.85 2289.32C2845.14 2288.69 2845.54 2288.16 2846.06 2287.74C2846.57 2287.32 2847.15 2287.05 2847.79 2286.93V2286.83C2846.95 2286.61 2846.29 2286.14 2845.79 2285.42C2845.3 2284.7 2845.05 2283.87 2845.06 2282.94C2845.05 2282.06 2845.28 2281.26 2845.73 2280.57C2846.19 2279.87 2846.81 2279.32 2847.61 2278.91C2848.41 2278.51 2849.32 2278.31 2850.34 2278.31C2851.35 2278.31 2852.26 2278.51 2853.05 2278.91C2853.85 2279.32 2854.47 2279.87 2854.93 2280.57C2855.39 2281.26 2855.62 2282.06 2855.63 2282.94C2855.62 2283.87 2855.37 2284.7 2854.87 2285.42C2854.37 2286.14 2853.72 2286.61 2852.9 2286.83V2286.93C2853.53 2287.05 2854.1 2287.32 2854.6 2287.74C2855.11 2288.16 2855.51 2288.69 2855.81 2289.32C2856.12 2289.94 2856.27 2290.62 2856.27 2291.36C2856.27 2292.31 2856.01 2293.15 2855.51 2293.89C2855.01 2294.62 2854.31 2295.2 2853.42 2295.62C2852.53 2296.03 2851.51 2296.24 2850.34 2296.24ZM2850.34 2294.36C2851.13 2294.36 2851.81 2294.24 2852.39 2293.98C2852.96 2293.72 2853.41 2293.36 2853.72 2292.9C2854.03 2292.43 2854.19 2291.89 2854.2 2291.26C2854.19 2290.6 2854.02 2290.02 2853.68 2289.51C2853.35 2289.01 2852.89 2288.61 2852.31 2288.32C2851.74 2288.03 2851.08 2287.89 2850.34 2287.89C2849.6 2287.89 2848.93 2288.03 2848.35 2288.32C2847.77 2288.61 2847.31 2289.01 2846.98 2289.51C2846.65 2290.02 2846.49 2290.6 2846.49 2291.26C2846.49 2291.89 2846.64 2292.43 2846.94 2292.9C2847.25 2293.36 2847.7 2293.72 2848.28 2293.98C2848.86 2294.24 2849.55 2294.36 2850.34 2294.36ZM2850.34 2286.08C2850.97 2286.08 2851.52 2285.95 2852 2285.7C2852.49 2285.45 2852.88 2285.11 2853.16 2284.66C2853.43 2284.21 2853.58 2283.68 2853.58 2283.08C2853.58 2282.49 2853.44 2281.97 2853.16 2281.54C2852.89 2281.09 2852.51 2280.75 2852.03 2280.51C2851.55 2280.27 2850.99 2280.15 2850.34 2280.15C2849.69 2280.15 2849.12 2280.27 2848.63 2280.51C2848.14 2280.75 2847.76 2281.09 2847.5 2281.54C2847.23 2281.97 2847.1 2282.49 2847.1 2283.08C2847.1 2283.68 2847.23 2284.21 2847.5 2284.66C2847.78 2285.11 2848.17 2285.45 2848.66 2285.7C2849.14 2285.95 2849.71 2286.08 2850.34 2286.08Z"
      fill="black"
    />
  </g>
</svg>
