<svg width="539" height="1019" viewBox="0 0 539 1019" fill="none" xmlns="http://www.w3.org/2000/svg">
<g id="Group 1">
<rect id="ba&#195;&#177;os mixtos 1" x="332" y="702" width="63" height="23" fill="white"/>
<rect id="hall" x="100" y="673" width="96" height="126" fill="white"/>
<rect id="Pasillo" y="673" width="100" height="34" fill="white"/>
<rect id="pecera" x="103" y="624" width="69" height="46" fill="white"/>
<rect id="alumnos" x="199" y="630" width="84" height="95" fill="white"/>
<rect id="Pasillo_2" x="196" y="728" width="314" height="30" fill="white"/>
<rect id="Rectangle 8" x="143" y="802" width="75" height="44" fill="white"/>
<path id="Subtract" d="M264 846H221V799H199V761H264V846Z" fill="white"/>
<rect id="Pasillo_3" x="175" y="570" width="21" height="103" fill="white"/>
<rect id="Rectangle 28" x="100" y="799" width="40" height="50" fill="white"/>
<rect id="Rectangle 39" x="286" y="702" width="43" height="23" fill="white"/>
<rect id="Rectangle 35" x="398" y="679" width="27" height="46" fill="white"/>
<rect id="Rectangle 37" x="286" y="679" width="112" height="20" fill="white"/>
<rect id="Rectangle 40" x="286" y="493" width="20" height="186" fill="white"/>
<rect id="Rectangle 41" x="405" y="493" width="20" height="186" fill="white"/>
<path id="buffet" d="M309 556H402V676H309V556Z" fill="white"/>
<rect id="sum" x="309" y="313" width="93" height="240" fill="white"/>
<rect id="Rectangle 53" x="267" y="761" width="45" height="32" fill="white"/>
<rect id="Rectangle 56" x="267" y="796" width="45" height="50" fill="white"/>
<rect id="Rectangle 58" x="315" y="758" width="21" height="90" fill="white"/>
<path id="paredes" d="M263.5 758C263.885 758 264.235 758.146 264.5 758.384C264.765 758.146 265.115 758 265.5 758C266.328 758 267 758.672 267 759.5V793H312V761H278.5C277.672 761 277 760.328 277 759.5C277 758.672 277.672 758 278.5 758H313.5C314.328 758 315 758.672 315 759.5V794.5C315 795.328 314.328 796 313.5 796H267V846H312V807.5C312 806.672 312.672 806 313.5 806C314.328 806 315 806.672 315 807.5V847.5C315 848.328 314.328 849 313.5 849H211V878H218.5C219.328 878 220 878.672 220 879.5V1017.5C220 1018.33 219.328 1019 218.5 1019H141.5C140.723 1019 140.085 1018.41 140.008 1017.65C140.003 1017.6 140 1017.55 140 1017.5V1006.5C140 1005.67 140.672 1005 141.5 1005C142.328 1005 143 1005.67 143 1006.5V1016H217V976H143V993.5C143 994.328 142.328 995 141.5 995C140.672 995 140 994.328 140 993.5V958.5C140 957.672 140.672 957 141.5 957C142.328 957 143 957.672 143 958.5V973H217V928H143V945.5C143 946.328 142.328 947 141.5 947C140.672 947 140 946.328 140 945.5V906.5C140 905.672 140.672 905 141.5 905C142.328 905 143 905.672 143 906.5V925H217V881H205.5C204.672 881 204 880.328 204 879.5C204 878.672 204.672 878 205.5 878H208V849H141.5C140.672 849 140 848.328 140 847.5V800.5C140 799.672 140.672 799 141.5 799H184.5C185.328 799 186 799.672 186 800.5C186 801.328 185.328 802 184.5 802H143V846H218V802H197.5C196.672 802 196 801.328 196 800.5C196 799.672 196.672 799 197.5 799H219.5C220.328 799 221 799.672 221 800.5V846H264V760.912C263.843 760.968 263.676 761 263.5 761H199V787.5C199 788.328 198.328 789 197.5 789C196.672 789 196 788.328 196 787.5V759.5C196 758.672 196.672 758 197.5 758H263.5ZM192.5 878C193.328 878 194 878.672 194 879.5C194 880.328 193.328 881 192.5 881H143V893.5C143 894.328 142.328 895 141.5 895C140.672 895 140 894.328 140 893.5V879.5C140 878.672 140.672 878 141.5 878H192.5ZM98.5 761C99.3284 761 100 761.672 100 762.5V847.5C100 848.328 99.3284 849 98.5 849C97.6716 849 97 848.328 97 847.5V762.5C97 761.672 97.6716 761 98.5 761ZM396.5 758C397.328 758 398 758.672 398 759.5C398 760.328 397.328 761 396.5 761H337.5C336.672 761 336 760.328 336 759.5C336 758.672 336.672 758 337.5 758H396.5ZM98.5 741C99.3284 741 100 741.672 100 742.5V749.5C100 750.328 99.3284 751 98.5 751C97.6716 751 97 750.328 97 749.5V742.5C97 741.672 97.6716 741 98.5 741ZM284.5 627C285.328 627 286 627.672 286 628.5V699H317.5C318.328 699 319 699.672 319 700.5C319 701.328 318.328 702 317.5 702H286V725H329V700.5C329 700.448 329.003 700.397 329.008 700.347C329.085 699.59 329.723 699 330.5 699H396.5C397.277 699 397.915 699.59 397.992 700.347C397.997 700.397 398 700.448 398 700.5V726.5C398 727.328 397.328 728 396.5 728H376.5C375.672 728 375 727.328 375 726.5C375 725.672 375.672 725 376.5 725H395V702H365V726.5C365 727.328 364.328 728 363.5 728C362.672 728 362 727.328 362 726.5V702H332V725H350.5C351.328 725 352 725.672 352 726.5C352 727.328 351.328 728 350.5 728H197.5C196.672 728 196 727.328 196 726.5C196 725.672 196.672 725 197.5 725H283V630H199V713.5C199 714.328 198.328 715 197.5 715C196.672 715 196 714.328 196 713.5V628.5C196 628.448 196.003 628.397 196.008 628.347C196.085 627.59 196.723 627 197.5 627H284.5ZM537.5 0C538.328 0 539 0.671573 539 1.5V534.5C539 535.328 538.328 536 537.5 536H510V726.5C510 727.328 509.328 728 508.5 728H450.5C449.672 728 449 727.328 449 726.5C449 725.672 449.672 725 450.5 725H507V680H452V713.5C452 714.328 451.328 715 450.5 715C449.672 715 449 714.328 449 713.5V678.5C449 677.672 449.672 677 450.5 677H507V584H452V617.5C452 618.328 451.328 619 450.5 619C449.672 619 449 618.328 449 617.5V582.5C449 581.672 449.672 581 450.5 581H507V536H452V569.5C452 570.328 451.328 571 450.5 571C449.672 571 449 570.328 449 569.5V534.5C449 533.672 449.672 533 450.5 533H536V471H452V521.5C452 522.328 451.328 523 450.5 523C449.672 523 449 522.328 449 521.5V469.5C449 469.448 449.003 469.397 449.008 469.347C449.085 468.59 449.723 468 450.5 468H536V413H452V457.5C452 458.328 451.328 459 450.5 459C449.672 459 449 458.328 449 457.5V411.5C449 411.448 449.003 411.397 449.008 411.347C449.085 410.59 449.723 410 450.5 410H536V354H452V398.5C452 399.328 451.328 400 450.5 400C449.672 400 449 399.328 449 398.5V352.5C449 351.672 449.672 351 450.5 351H536V295H452V339.5C452 340.328 451.328 341 450.5 341C449.672 341 449 340.328 449 339.5V293.5C449 292.672 449.672 292 450.5 292H536V237H463.5C462.672 237 462 236.328 462 235.5C462 234.672 462.672 234 463.5 234H536V178H452V222.5C452 223.328 451.328 224 450.5 224C449.672 224 449 223.328 449 222.5V176.5C449 175.672 449.672 175 450.5 175H536V121H452V163.5C452 164.328 451.328 165 450.5 165C449.672 165 449 164.328 449 163.5V121H445.5C444.672 121 444 120.328 444 119.5C444 118.672 444.672 118 445.5 118H536V3H428V118H431.5C432.328 118 433 118.672 433 119.5C433 120.328 432.328 121 431.5 121H428V726.5C428 727.328 427.328 728 426.5 728H409.5C408.672 728 408 727.328 408 726.5C408 725.672 408.672 725 409.5 725H425V1.5C425 0.671573 425.672 0 426.5 0H537.5ZM98.5 707C99.3284 707 100 707.672 100 708.5V723.5C100 724.328 99.3284 725 98.5 725C97.6716 725 97 724.328 97 723.5V710H1.5C0.671573 710 0 709.328 0 708.5C0 707.672 0.671573 707 1.5 707H98.5ZM356.5 271C357.328 271 358 271.672 358 272.5V310H363.5C364.328 310 365 310.672 365 311.5C365 312.328 364.328 313 363.5 313H356.5C355.672 313 355 312.328 355 311.5V274H309V310H343.5C344.328 310 345 310.672 345 311.5C345 312.328 344.328 313 343.5 313H309V553H403.5C404.328 553 405 553.672 405 554.5V677.5C405 678.328 404.328 679 403.5 679C402.672 679 402 678.328 402 677.5V556H309V676H390.5C391.328 676 392 676.672 392 677.5C392 678.328 391.328 679 390.5 679H307.5C306.672 679 306 678.328 306 677.5V272.5C306 271.672 306.672 271 307.5 271H356.5ZM173.5 621C174.328 621 175 621.672 175 622.5V671.5C175 672.328 174.328 673 173.5 673C172.672 673 172 672.328 172 671.5V624H103V670H160.5C161.328 670 162 670.672 162 671.5C162 672.328 161.328 673 160.5 673H1.5C0.671575 673 0 672.328 0 671.5C0 670.672 0.671573 670 1.5 670H100V622.5C100 622.448 100.003 622.397 100.008 622.347C100.085 621.59 100.723 621 101.5 621H173.5ZM450.5 629C451.328 629 452 629.672 452 630.5V665.5C452 666.328 451.328 667 450.5 667C449.672 667 449 666.328 449 665.5V630.5C449 629.672 449.672 629 450.5 629ZM403.5 310C404.328 310 405 310.672 405 311.5V531.5C405 532.328 404.328 533 403.5 533C402.672 533 402 532.328 402 531.5V313H393.5C392.672 313 392 312.328 392 311.5C392 310.672 392.672 310 393.5 310H403.5ZM450.5 234C451.328 234 452 234.672 452 235.5V280.5C452 281.328 451.328 282 450.5 282C449.672 282 449 281.328 449 280.5V235.5C449 234.672 449.672 234 450.5 234Z" fill="#FF0000"/>
</g>
</svg>
